<?xml version="1.0" encoding="UTF-8" standalone="no"?>
<!DOCTYPE svg PUBLIC "-//W3C//DTD SVG 1.1//EN"
 "http://www.w3.org/Graphics/SVG/1.1/DTD/svg11.dtd">
<!-- Generated by graphviz version 14.1.3 (20260303.0454)
 -->
<!-- Pages: 1 -->
<svg width="200pt" height="279pt"
 viewBox="0.00 0.00 200.00 279.00" xmlns="http://www.w3.org/2000/svg" xmlns:xlink="http://www.w3.org/1999/xlink">
<g id="graph0" class="graph" transform="scale(1 1) rotate(0) translate(4 275)">
<polygon fill="white" stroke="none" points="-4,4 -4,-275 195.5,-275 195.5,4 -4,4"/>
<g id="clust3" class="cluster">
<title>cluster_associated</title>
</g>
<!-- ScheduleThing -->
<g id="node1" class="node">
<title>ScheduleThing</title>
<g id="a_node1"><a xlink:href="../ScheduleThing" xlink:title="&lt;TABLE&gt;">
<polygon fill="lightgray" stroke="none" points="53.88,-244.88 53.88,-261.12 137.62,-261.12 137.62,-244.88 53.88,-244.88"/>
<text xml:space="preserve" text-anchor="start" x="54.88" y="-248.88" font-family="Arial" font-size="12.00">ScheduleThing</text>
<polygon fill="none" stroke="black" points="52.88,-243.88 52.88,-262.12 138.62,-262.12 138.62,-243.88 52.88,-243.88"/>
</a>
</g>
</g>
<!-- CalendarWeekWithinMonth -->
<g id="node2" class="node">
<title>CalendarWeekWithinMonth</title>
<g id="a_node2"><a xlink:href="../CalendarWeekWithinMonth" xlink:title="&lt;TABLE&gt;">
<polygon fill="lightgray" stroke="none" points="1,-180 1,-196.25 190.5,-196.25 190.5,-180 1,-180"/>
<text xml:space="preserve" text-anchor="start" x="22.25" y="-184" font-family="Arial" font-size="12.00">CalendarWeekWithinMonth</text>
<text xml:space="preserve" text-anchor="start" x="2" y="-167.75" font-family="Arial" font-size="12.00">reverseInstance : xsd:boolean [0..1]</text>
<polygon fill="none" stroke="black" points="0,-162.75 0,-197.25 191.5,-197.25 191.5,-162.75 0,-162.75"/>
</a>
</g>
</g>
<!-- CalendarWeekWithinMonth&#45;&gt;ScheduleThing -->
<g id="edge1" class="edge">
<title>CalendarWeekWithinMonth&#45;&gt;ScheduleThing</title>
<path fill="none" stroke="black" d="M95.75,-197.71C95.75,-205.47 95.75,-214.92 95.75,-223.74"/>
<polygon fill="none" stroke="black" points="92.25,-223.66 95.75,-233.66 99.25,-223.66 92.25,-223.66"/>
</g>
<!-- Invis -->
<!-- CalendarWeekWithinMonth&#45;&gt;Invis -->
<!-- WeekCode -->
<g id="node4" class="node">
<title>WeekCode</title>
<g id="a_node4"><a xlink:href="../WeekCode" xlink:title="&lt;TABLE&gt;">
<polygon fill="lightgray" stroke="none" points="36.75,-25.88 36.75,-42.12 98.75,-42.12 98.75,-25.88 36.75,-25.88"/>
<text xml:space="preserve" text-anchor="start" x="37.75" y="-29.88" font-family="Arial" font-size="12.00">WeekCode</text>
<polygon fill="none" stroke="black" points="35.75,-24.88 35.75,-43.12 99.75,-43.12 99.75,-24.88 35.75,-24.88"/>
</a>
</g>
</g>
<!-- CalendarWeekWithinMonth&#45;&gt;WeekCode -->
<g id="edge4" class="edge">
<title>CalendarWeekWithinMonth&#45;&gt;WeekCode</title>
<path fill="none" stroke="black" d="M99.92,-162.06C103.69,-143.69 107.7,-113.71 100.75,-89 98.04,-79.38 93.09,-69.77 87.83,-61.39"/>
<polygon fill="black" stroke="black" points="90.73,-59.43 82.24,-53.1 84.93,-63.35 90.73,-59.43"/>
<text xml:space="preserve" text-anchor="middle" x="142.42" y="-110.05" font-family="Arial" font-size="11.00">applicableWeek</text>
<text xml:space="preserve" text-anchor="middle" x="142.42" y="-96.55" font-family="Arial" font-size="11.00">1..6</text>
</g>
<!-- Invis&#45;&gt;WeekCode -->
</g>
</svg>
