<?xml version="1.0" encoding="UTF-8" standalone="no"?>
<!DOCTYPE svg PUBLIC "-//W3C//DTD SVG 1.1//EN"
 "http://www.w3.org/Graphics/SVG/1.1/DTD/svg11.dtd">
<!-- Generated by graphviz version 14.1.3 (20260303.0454)
 -->
<!-- Pages: 1 -->
<svg width="174pt" height="279pt"
 viewBox="0.00 0.00 174.00 279.00" xmlns="http://www.w3.org/2000/svg" xmlns:xlink="http://www.w3.org/1999/xlink">
<g id="graph0" class="graph" transform="scale(1 1) rotate(0) translate(4 275)">
<polygon fill="white" stroke="none" points="-4,4 -4,-275 170.05,-275 170.05,4 -4,4"/>
<g id="clust3" class="cluster">
<title>cluster_associated</title>
</g>
<!-- ScheduleThing -->
<g id="node1" class="node">
<title>ScheduleThing</title>
<g id="a_node1"><a xlink:href="../ScheduleThing" xlink:title="&lt;TABLE&gt;">
<polygon fill="lightgray" stroke="none" points="39.62,-244.88 39.62,-261.12 123.38,-261.12 123.38,-244.88 39.62,-244.88"/>
<text xml:space="preserve" text-anchor="start" x="40.62" y="-248.88" font-family="Arial" font-size="12.00">ScheduleThing</text>
<polygon fill="none" stroke="black" points="38.62,-243.88 38.62,-262.12 124.38,-262.12 124.38,-243.88 38.62,-243.88"/>
</a>
</g>
</g>
<!-- CalendarWeekWithinMonth -->
<g id="node2" class="node">
<title>CalendarWeekWithinMonth</title>
<g id="a_node2"><a xlink:href="../CalendarWeekWithinMonth" xlink:title="&lt;TABLE&gt;">
<polygon fill="lightgray" stroke="none" points="1,-180 1,-196.25 162,-196.25 162,-180 1,-180"/>
<text xml:space="preserve" text-anchor="start" x="8" y="-184" font-family="Arial" font-size="12.00">CalendarWeekWithinMonth</text>
<text xml:space="preserve" text-anchor="start" x="2" y="-167.75" font-family="Arial" font-size="12.00">reverseInstance : xsd:boolean</text>
<polygon fill="none" stroke="black" points="0,-162.75 0,-197.25 163,-197.25 163,-162.75 0,-162.75"/>
</a>
</g>
</g>
<!-- CalendarWeekWithinMonth&#45;&gt;ScheduleThing -->
<g id="edge1" class="edge">
<title>CalendarWeekWithinMonth&#45;&gt;ScheduleThing</title>
<path fill="none" stroke="black" d="M81.5,-197.71C81.5,-205.47 81.5,-214.92 81.5,-223.74"/>
<polygon fill="none" stroke="black" points="78,-223.66 81.5,-233.66 85,-223.66 78,-223.66"/>
</g>
<!-- Invis -->
<!-- CalendarWeekWithinMonth&#45;&gt;Invis -->
<!-- WeekCode -->
<g id="node4" class="node">
<title>WeekCode</title>
<g id="a_node4"><a xlink:href="../WeekCode" xlink:title="&lt;TABLE&gt;">
<polygon fill="lightgray" stroke="none" points="22.5,-25.88 22.5,-42.12 84.5,-42.12 84.5,-25.88 22.5,-25.88"/>
<text xml:space="preserve" text-anchor="start" x="23.5" y="-29.88" font-family="Arial" font-size="12.00">WeekCode</text>
<polygon fill="none" stroke="black" points="21.5,-24.88 21.5,-43.12 85.5,-43.12 85.5,-24.88 21.5,-24.88"/>
</a>
</g>
</g>
<!-- CalendarWeekWithinMonth&#45;&gt;WeekCode -->
<g id="edge4" class="edge">
<title>CalendarWeekWithinMonth&#45;&gt;WeekCode</title>
<path fill="none" stroke="black" d="M85.67,-162.06C89.44,-143.69 93.45,-113.71 86.5,-89 83.79,-79.38 78.84,-69.77 73.58,-61.39"/>
<polygon fill="black" stroke="black" points="76.48,-59.43 67.99,-53.1 70.68,-63.35 76.48,-59.43"/>
<text xml:space="preserve" text-anchor="middle" x="128.17" y="-110.05" font-family="Arial" font-size="11.00">applicableWeek</text>
<text xml:space="preserve" text-anchor="middle" x="128.17" y="-96.55" font-family="Arial" font-size="11.00">1..6</text>
</g>
<!-- Invis&#45;&gt;WeekCode -->
</g>
</svg>
