<?xml version="1.0" encoding="UTF-8" standalone="no"?>
<!DOCTYPE svg PUBLIC "-//W3C//DTD SVG 1.1//EN"
 "http://www.w3.org/Graphics/SVG/1.1/DTD/svg11.dtd">
<!-- Generated by graphviz version 13.1.0 (20250701.0955)
 -->
<!-- Pages: 1 -->
<svg width="382pt" height="233pt"
 viewBox="0.00 0.00 382.00 233.00" xmlns="http://www.w3.org/2000/svg" xmlns:xlink="http://www.w3.org/1999/xlink">
<g id="graph0" class="graph" transform="scale(1 1) rotate(0) translate(4 229.25)">
<polygon fill="white" stroke="none" points="-4,4 -4,-229.25 378.38,-229.25 378.38,4 -4,4"/>
<g id="clust2" class="cluster">
<title>cluster_associated</title>
</g>
<!-- TimeThing -->
<g id="node1" class="node">
<title>TimeThing</title>
<g id="a_node1"><a xlink:href="../classes/TimeThing.md" xlink:title="&lt;TABLE&gt;">
<polygon fill="lightgray" stroke="none" points="92.88,-199.12 92.88,-215.38 151.88,-215.38 151.88,-199.12 92.88,-199.12"/>
<text xml:space="preserve" text-anchor="start" x="93.88" y="-202.97" font-family="Arial" font-size="12.00">TimeThing</text>
<polygon fill="none" stroke="black" points="91.88,-198.12 91.88,-216.38 152.88,-216.38 152.88,-198.12 91.88,-198.12"/>
</a>
</g>
</g>
<!-- DaySelector -->
<g id="node2" class="node">
<title>DaySelector</title>
<g id="a_node2"><a xlink:href="../classes/DaySelector.md" xlink:title="&lt;TABLE&gt;">
<polygon fill="lightgray" stroke="none" points="1,-135 1,-151.25 243.75,-151.25 243.75,-135 1,-135"/>
<text xml:space="preserve" text-anchor="start" x="89.38" y="-138.85" font-family="Arial" font-size="12.00">DaySelector</text>
<text xml:space="preserve" text-anchor="start" x="2" y="-122.6" font-family="Arial" font-size="12.00">applicableDayOfMonth: gDay «max 30, only»</text>
<text xml:space="preserve" text-anchor="start" x="2" y="-106.35" font-family="Arial" font-size="12.00">applicableMonth: gMonth «max 11, only»</text>
<polygon fill="none" stroke="black" points="0,-101.5 0,-152.25 244.75,-152.25 244.75,-101.5 0,-101.5"/>
</a>
</g>
</g>
<!-- DaySelector&#45;&gt;TimeThing -->
<g id="edge1" class="edge">
<title>DaySelector&#45;&gt;TimeThing</title>
<path fill="none" stroke="black" d="M122.38,-152.21C122.38,-160.47 122.38,-169.77 122.38,-178.29"/>
<polygon fill="none" stroke="black" points="118.88,-178.12 122.38,-188.12 125.88,-178.12 118.88,-178.12"/>
</g>
<!-- Invis -->
<!-- DaySelector&#45;&gt;Invis -->
<!-- time__DayOfWeek -->
<g id="node4" class="node">
<title>time__DayOfWeek</title>
<g id="a_node4"><a xlink:href="../classes/time::DayOfWeek.md" xlink:title="&lt;TABLE&gt;">
<polygon fill="lightgray" stroke="none" points="261.88,-25.88 261.88,-42.12 356.88,-42.12 356.88,-25.88 261.88,-25.88"/>
<text xml:space="preserve" text-anchor="start" x="262.88" y="-29.73" font-family="Arial" font-size="12.00">time::DayOfWeek</text>
<polygon fill="none" stroke="black" points="260.88,-24.88 260.88,-43.12 357.88,-43.12 357.88,-24.88 260.88,-24.88"/>
</a>
</g>
</g>
<!-- DaySelector&#45;&gt;time__DayOfWeek -->
<g id="edge4" class="edge">
<title>DaySelector&#45;&gt;time__DayOfWeek</title>
<path fill="none" stroke="black" d="M117.31,-101.65C116.47,-90.77 117.73,-78.5 125.12,-70 141.22,-51.51 202.13,-42.66 249.56,-38.51"/>
<polygon fill="black" stroke="black" points="249.8,-42 259.48,-37.7 249.23,-35.03 249.8,-42"/>
<text xml:space="preserve" text-anchor="middle" x="214.75" y="-73.05" font-family="Arial" font-size="11.00">applicableDayOfWeek «max 6, only» </text>
</g>
<!-- Invis&#45;&gt;time__DayOfWeek -->
</g>
</svg>
