<?xml version="1.0" encoding="UTF-8" standalone="no"?>
<!DOCTYPE svg PUBLIC "-//W3C//DTD SVG 1.1//EN"
 "http://www.w3.org/Graphics/SVG/1.1/DTD/svg11.dtd">
<!-- Generated by graphviz version 14.1.3 (20260303.0454)
 -->
<!-- Pages: 1 -->
<svg width="281pt" height="393pt"
 viewBox="0.00 0.00 281.00 393.00" xmlns="http://www.w3.org/2000/svg" xmlns:xlink="http://www.w3.org/1999/xlink">
<g id="graph0" class="graph" transform="scale(1 1) rotate(0) translate(4 388.75)">
<polygon fill="white" stroke="none" points="-4,4 -4,-388.75 277.48,-388.75 277.48,4 -4,4"/>
<g id="clust3" class="cluster">
<title>cluster_associated</title>
</g>
<!-- ScheduleThing -->
<g id="node1" class="node">
<title>ScheduleThing</title>
<g id="a_node1"><a xlink:href="../ScheduleThing" xlink:title="&lt;TABLE&gt;">
<polygon fill="lightgray" stroke="none" points="64.12,-358.62 64.12,-374.88 147.88,-374.88 147.88,-358.62 64.12,-358.62"/>
<text xml:space="preserve" text-anchor="start" x="65.12" y="-362.62" font-family="Arial" font-size="12.00">ScheduleThing</text>
<polygon fill="none" stroke="black" points="63.12,-357.62 63.12,-375.88 148.88,-375.88 148.88,-357.62 63.12,-357.62"/>
</a>
</g>
</g>
<!-- DayWeekMonth -->
<g id="node2" class="node">
<title>DayWeekMonth</title>
<g id="a_node2"><a xlink:href="../DayWeekMonth" xlink:title="&lt;TABLE&gt;">
<polygon fill="lightgray" stroke="none" points="59.25,-294.5 59.25,-310.75 152.75,-310.75 152.75,-294.5 59.25,-294.5"/>
<text xml:space="preserve" text-anchor="start" x="63.25" y="-298.5" font-family="Arial" font-size="12.00">DayWeekMonth</text>
<text xml:space="preserve" text-anchor="start" x="60.25" y="-282.25" font-family="Arial" font-size="12.00">time:hasTRS [1]</text>
<text xml:space="preserve" text-anchor="start" x="60.25" y="-266" font-family="Arial" font-size="12.00">time:timeZone [1]</text>
<polygon fill="none" stroke="black" points="58.25,-261 58.25,-311.75 153.75,-311.75 153.75,-261 58.25,-261"/>
</a>
</g>
</g>
<!-- DayWeekMonth&#45;&gt;ScheduleThing -->
<g id="edge1" class="edge">
<title>DayWeekMonth&#45;&gt;ScheduleThing</title>
<path fill="none" stroke="black" d="M106,-311.71C106,-319.97 106,-329.27 106,-337.79"/>
<polygon fill="none" stroke="black" points="102.5,-337.62 106,-347.62 109.5,-337.62 102.5,-337.62"/>
</g>
<!-- Invis -->
<!-- DayWeekMonth&#45;&gt;Invis -->
<!-- time_DayOfWeek -->
<g id="node4" class="node">
<title>time_DayOfWeek</title>
<g id="a_node4"><a xlink:href="https://w3id.org/citydata/imported/time/latest/DayOfWeek" xlink:title="&lt;TABLE&gt;">
<polygon fill="lightgray" stroke="none" points="19,-98.88 19,-115.12 111,-115.12 111,-98.88 19,-98.88"/>
<text xml:space="preserve" text-anchor="start" x="20" y="-102.88" font-family="Arial" font-size="12.00">time:DayOfWeek</text>
<polygon fill="none" stroke="black" points="18,-97.88 18,-116.12 112,-116.12 112,-97.88 18,-97.88"/>
</a>
</g>
</g>
<!-- DayWeekMonth&#45;&gt;time_DayOfWeek -->
<g id="edge5" class="edge">
<title>DayWeekMonth&#45;&gt;time_DayOfWeek</title>
<path fill="none" stroke="black" d="M100.39,-261.08C92.81,-228.32 79.36,-170.13 71.4,-135.7"/>
<polygon fill="black" stroke="black" points="74.84,-135.03 69.18,-126.07 68.02,-136.6 74.84,-135.03"/>
<text xml:space="preserve" text-anchor="middle" x="146.76" y="-209.05" font-family="Arial" font-size="11.00">applicableDayOfWeek</text>
<text xml:space="preserve" text-anchor="middle" x="146.76" y="-195.55" font-family="Arial" font-size="11.00">1..7</text>
</g>
<!-- time_MonthOfYear -->
<g id="node5" class="node">
<title>time_MonthOfYear</title>
<g id="a_node5"><a xlink:href="https://w3id.org/citydata/imported/time/latest/MonthOfYear" xlink:title="&lt;TABLE&gt;">
<polygon fill="lightgray" stroke="none" points="16.75,-25.88 16.75,-42.12 113.25,-42.12 113.25,-25.88 16.75,-25.88"/>
<text xml:space="preserve" text-anchor="start" x="17.75" y="-29.88" font-family="Arial" font-size="12.00">time:MonthOfYear</text>
<polygon fill="none" stroke="black" points="15.75,-24.88 15.75,-43.12 114.25,-43.12 114.25,-24.88 15.75,-24.88"/>
</a>
</g>
</g>
<!-- DayWeekMonth&#45;&gt;time_MonthOfYear -->
<g id="edge6" class="edge">
<title>DayWeekMonth&#45;&gt;time_MonthOfYear</title>
<path fill="none" stroke="black" d="M153.62,-271.42C172.77,-263.2 192.92,-250.66 204,-232 213.99,-215.19 210.68,-206.38 204,-188 183.84,-132.58 132.3,-85.27 97.96,-58.49"/>
<polygon fill="black" stroke="black" points="100.48,-56.01 90.4,-52.73 96.23,-61.58 100.48,-56.01"/>
<text xml:space="preserve" text-anchor="middle" x="234.48" y="-159.55" font-family="Arial" font-size="11.00">applicableMonth</text>
<text xml:space="preserve" text-anchor="middle" x="234.48" y="-146.05" font-family="Arial" font-size="11.00">1..12</text>
</g>
<!-- Invis&#45;&gt;time_DayOfWeek -->
<!-- time_DayOfWeek&#45;&gt;time_MonthOfYear -->
</g>
</svg>
