<?xml version="1.0" encoding="UTF-8" standalone="no"?>
<!DOCTYPE svg PUBLIC "-//W3C//DTD SVG 1.1//EN"
 "http://www.w3.org/Graphics/SVG/1.1/DTD/svg11.dtd">
<!-- Generated by graphviz version 13.1.0 (20250701.0955)
 -->
<!-- Pages: 1 -->
<svg width="288pt" height="292pt"
 viewBox="0.00 0.00 288.00 292.00" xmlns="http://www.w3.org/2000/svg" xmlns:xlink="http://www.w3.org/1999/xlink">
<g id="graph0" class="graph" transform="scale(1 1) rotate(0) translate(4 287.5)">
<polygon fill="white" stroke="none" points="-4,4 -4,-287.5 283.5,-287.5 283.5,4 -4,4"/>
<g id="clust2" class="cluster">
<title>cluster_associated</title>
</g>
<!-- TimeThing -->
<g id="node1" class="node">
<title>TimeThing</title>
<g id="a_node1"><a xlink:href="../classes/TimeThing.md" xlink:title="&lt;TABLE&gt;">
<polygon fill="lightgray" stroke="none" points="55,-257.38 55,-273.62 114,-273.62 114,-257.38 55,-257.38"/>
<text xml:space="preserve" text-anchor="start" x="56" y="-261.23" font-family="Arial" font-size="12.00">TimeThing</text>
<polygon fill="none" stroke="black" points="54,-256.38 54,-274.62 115,-274.62 115,-256.38 54,-256.38"/>
</a>
</g>
</g>
<!-- FuzzyTime -->
<g id="node2" class="node">
<title>FuzzyTime</title>
<g id="a_node2"><a xlink:href="../classes/FuzzyTime.md" xlink:title="&lt;TABLE&gt;">
<polygon fill="lightgray" stroke="none" points="1,-192.5 1,-208.75 168,-208.75 168,-192.5 1,-192.5"/>
<text xml:space="preserve" text-anchor="start" x="55.25" y="-196.35" font-family="Arial" font-size="12.00">FuzzyTime</text>
<text xml:space="preserve" text-anchor="start" x="2" y="-180.1" font-family="Arial" font-size="12.00">after: boolean «exactly 1, only»</text>
<polygon fill="none" stroke="black" points="0,-175.25 0,-209.75 169,-209.75 169,-175.25 0,-175.25"/>
</a>
</g>
</g>
<!-- FuzzyTime&#45;&gt;TimeThing -->
<g id="edge1" class="edge">
<title>FuzzyTime&#45;&gt;TimeThing</title>
<path fill="none" stroke="black" d="M84.5,-210.21C84.5,-217.97 84.5,-227.42 84.5,-236.24"/>
<polygon fill="none" stroke="black" points="81,-236.16 84.5,-246.16 88,-236.16 81,-236.16"/>
</g>
<!-- Invis -->
<!-- FuzzyTime&#45;&gt;Invis -->
<!-- code__Code -->
<g id="node4" class="node">
<title>code__Code</title>
<g id="a_node4"><a xlink:href="../classes/code::Code.md" xlink:title="&lt;TABLE&gt;">
<polygon fill="lightgray" stroke="none" points="192.75,-98.88 192.75,-115.12 256.25,-115.12 256.25,-98.88 192.75,-98.88"/>
<text xml:space="preserve" text-anchor="start" x="193.75" y="-102.72" font-family="Arial" font-size="12.00">code::Code</text>
<polygon fill="none" stroke="black" points="191.75,-97.88 191.75,-116.12 257.25,-116.12 257.25,-97.88 191.75,-97.88"/>
</a>
</g>
</g>
<!-- FuzzyTime&#45;&gt;code__Code -->
<g id="edge6" class="edge">
<title>FuzzyTime&#45;&gt;code__Code</title>
<path fill="none" stroke="black" d="M80.46,-174.82C78.99,-164.5 79.2,-151.62 86.5,-143 111.74,-113.2 134.77,-135.08 172.5,-125 175.27,-124.26 178.11,-123.46 180.96,-122.62"/>
<polygon fill="black" stroke="black" points="181.95,-125.98 190.48,-119.7 179.9,-119.28 181.95,-125.98"/>
<text xml:space="preserve" text-anchor="middle" x="164.5" y="-146.05" font-family="Arial" font-size="11.00">timeReference «exactly 1, only» </text>
</g>
<!-- time__Duration -->
<g id="node5" class="node">
<title>time__Duration</title>
<g id="a_node5"><a xlink:href="../classes/time::Duration.md" xlink:title="&lt;TABLE&gt;">
<polygon fill="lightgray" stroke="none" points="186.38,-25.88 186.38,-42.12 262.62,-42.12 262.62,-25.88 186.38,-25.88"/>
<text xml:space="preserve" text-anchor="start" x="187.38" y="-29.73" font-family="Arial" font-size="12.00">time::Duration</text>
<polygon fill="none" stroke="black" points="185.38,-24.88 185.38,-43.12 263.62,-43.12 263.62,-24.88 185.38,-24.88"/>
</a>
</g>
</g>
<!-- FuzzyTime&#45;&gt;time__Duration -->
<g id="edge5" class="edge">
<title>FuzzyTime&#45;&gt;time__Duration</title>
<path fill="none" stroke="black" d="M75.61,-174.53C65.53,-152.68 52.69,-114.49 70.75,-89 94.07,-56.09 139.1,-43.09 174.43,-38.03"/>
<polygon fill="black" stroke="black" points="174.53,-41.54 184.02,-36.83 173.66,-34.6 174.53,-41.54"/>
<text xml:space="preserve" text-anchor="middle" x="126.62" y="-103.3" font-family="Arial" font-size="11.00">offset «exactly 1, only» </text>
</g>
<!-- Invis&#45;&gt;code__Code -->
<!-- code__Code&#45;&gt;time__Duration -->
</g>
</svg>
