<?xml version="1.0" encoding="UTF-8" standalone="no"?>
<!DOCTYPE svg PUBLIC "-//W3C//DTD SVG 1.1//EN"
 "http://www.w3.org/Graphics/SVG/1.1/DTD/svg11.dtd">
<!-- Generated by graphviz version 14.1.3 (20260303.0454)
 -->
<!-- Pages: 1 -->
<svg width="170pt" height="310pt"
 viewBox="0.00 0.00 170.00 310.00" xmlns="http://www.w3.org/2000/svg" xmlns:xlink="http://www.w3.org/1999/xlink">
<g id="graph0" class="graph" transform="scale(1 1) rotate(0) translate(4 306)">
<polygon fill="white" stroke="none" points="-4,4 -4,-306 166.12,-306 166.12,4 -4,4"/>
<g id="clust3" class="cluster">
<title>cluster_associated</title>
</g>
<!-- TimeOfDay -->
<g id="node1" class="node">
<title>TimeOfDay</title>
<g id="a_node1"><a xlink:href="../TimeOfDay" xlink:title="&lt;TABLE&gt;">
<polygon fill="lightgray" stroke="none" points="52,-275.88 52,-292.12 114,-292.12 114,-275.88 52,-275.88"/>
<text xml:space="preserve" text-anchor="start" x="53" y="-279.88" font-family="Arial" font-size="12.00">TimeOfDay</text>
<polygon fill="none" stroke="black" points="51,-274.88 51,-293.12 115,-293.12 115,-274.88 51,-274.88"/>
</a>
</g>
</g>
<!-- FuzzyTime -->
<g id="node2" class="node">
<title>FuzzyTime</title>
<g id="a_node2"><a xlink:href="../FuzzyTime" xlink:title="&lt;TABLE&gt;">
<polygon fill="lightgray" stroke="none" points="22.75,-211.75 22.75,-228 143.25,-228 143.25,-211.75 22.75,-211.75"/>
<text xml:space="preserve" text-anchor="start" x="53.75" y="-215.75" font-family="Arial" font-size="12.00">FuzzyTime</text>
<text xml:space="preserve" text-anchor="start" x="23.75" y="-199.5" font-family="Arial" font-size="12.00">offset : xsd:duration [1]</text>
<text xml:space="preserve" text-anchor="start" x="23.75" y="-183.25" font-family="Arial" font-size="12.00">time:timeZone [0..1]</text>
<text xml:space="preserve" text-anchor="start" x="23.75" y="-167" font-family="Arial" font-size="12.00">time:unitType [0..1]</text>
<polygon fill="none" stroke="black" points="21.75,-162 21.75,-229 144.25,-229 144.25,-162 21.75,-162"/>
</a>
</g>
</g>
<!-- FuzzyTime&#45;&gt;TimeOfDay -->
<g id="edge1" class="edge">
<title>FuzzyTime&#45;&gt;TimeOfDay</title>
<path fill="none" stroke="black" d="M83,-228.89C83,-237.45 83,-246.62 83,-254.93"/>
<polygon fill="none" stroke="black" points="79.5,-254.81 83,-264.81 86.5,-254.81 79.5,-254.81"/>
</g>
<!-- Invis -->
<!-- FuzzyTime&#45;&gt;Invis -->
<!-- FuzzyTimeCode -->
<g id="node4" class="node">
<title>FuzzyTimeCode</title>
<g id="a_node4"><a xlink:href="../FuzzyTimeCode" xlink:title="&lt;TABLE&gt;">
<polygon fill="lightgray" stroke="none" points="17.12,-25.88 17.12,-42.12 106.88,-42.12 106.88,-25.88 17.12,-25.88"/>
<text xml:space="preserve" text-anchor="start" x="18.12" y="-29.88" font-family="Arial" font-size="12.00">FuzzyTimeCode</text>
<polygon fill="none" stroke="black" points="16.12,-24.88 16.12,-43.12 107.88,-43.12 107.88,-24.88 16.12,-24.88"/>
</a>
</g>
</g>
<!-- FuzzyTime&#45;&gt;FuzzyTimeCode -->
<g id="edge4" class="edge">
<title>FuzzyTime&#45;&gt;FuzzyTimeCode</title>
<path fill="none" stroke="black" d="M88.99,-162.25C91.82,-141.15 93.51,-113.13 88,-89 85.88,-79.73 81.96,-70.19 77.8,-61.76"/>
<polygon fill="black" stroke="black" points="80.99,-60.32 73.22,-53.12 74.81,-63.6 80.99,-60.32"/>
<text xml:space="preserve" text-anchor="middle" x="126.87" y="-110.05" font-family="Arial" font-size="11.00">timeReference</text>
<text xml:space="preserve" text-anchor="middle" x="126.87" y="-96.55" font-family="Arial" font-size="11.00">1</text>
</g>
<!-- Invis&#45;&gt;FuzzyTimeCode -->
</g>
</svg>
