<?xml version="1.0" encoding="UTF-8" standalone="no"?>
<!DOCTYPE svg PUBLIC "-//W3C//DTD SVG 1.1//EN"
 "http://www.w3.org/Graphics/SVG/1.1/DTD/svg11.dtd">
<!-- Generated by graphviz version 13.1.0 (20250701.0955)
 -->
<!-- Pages: 1 -->
<svg width="246pt" height="132pt"
 viewBox="0.00 0.00 246.00 132.00" xmlns="http://www.w3.org/2000/svg" xmlns:xlink="http://www.w3.org/1999/xlink">
<g id="graph0" class="graph" transform="scale(1 1) rotate(0) translate(4 128)">
<polygon fill="white" stroke="none" points="-4,4 -4,-128 241.75,-128 241.75,4 -4,4"/>
<g id="clust2" class="cluster">
<title>cluster_associated</title>
</g>
<!-- TimeThing -->
<g id="node1" class="node">
<title>TimeThing</title>
<g id="a_node1"><a xlink:href="../classes/TimeThing.md" xlink:title="&lt;TABLE&gt;">
<polygon fill="lightgray" stroke="none" points="45.25,-97.88 45.25,-114.12 104.25,-114.12 104.25,-97.88 45.25,-97.88"/>
<text xml:space="preserve" text-anchor="start" x="46.25" y="-101.72" font-family="Arial" font-size="12.00">TimeThing</text>
<polygon fill="none" stroke="black" points="44.25,-96.88 44.25,-115.12 105.25,-115.12 105.25,-96.88 44.25,-96.88"/>
</a>
</g>
</g>
<!-- InstanceOfDayWithinMonth -->
<g id="node2" class="node">
<title>InstanceOfDayWithinMonth</title>
<g id="a_node2"><a xlink:href="../classes/InstanceOfDayWithinMonth.md" xlink:title="&lt;TABLE&gt;">
<polygon fill="lightgray" stroke="none" points="1,-25.88 1,-42.12 148.5,-42.12 148.5,-25.88 1,-25.88"/>
<text xml:space="preserve" text-anchor="start" x="2" y="-29.73" font-family="Arial" font-size="12.00">InstanceOfDayWithinMonth</text>
<polygon fill="none" stroke="black" points="0,-24.88 0,-43.12 149.5,-43.12 149.5,-24.88 0,-24.88"/>
</a>
</g>
</g>
<!-- InstanceOfDayWithinMonth&#45;&gt;TimeThing -->
<g id="edge1" class="edge">
<title>InstanceOfDayWithinMonth&#45;&gt;TimeThing</title>
<path fill="none" stroke="black" d="M74.75,-51.79C74.75,-59.25 74.75,-68.24 74.75,-76.69"/>
<polygon fill="none" stroke="black" points="71.25,-76.54 74.75,-86.54 78.25,-76.54 71.25,-76.54"/>
</g>
<!-- Invis -->
</g>
</svg>
