<?xml version="1.0" encoding="UTF-8" standalone="no"?>
<!DOCTYPE svg PUBLIC "-//W3C//DTD SVG 1.1//EN"
 "http://www.w3.org/Graphics/SVG/1.1/DTD/svg11.dtd">
<!-- Generated by graphviz version 14.0.2 (20251019.1705)
 -->
<!-- Pages: 1 -->
<svg width="818pt" height="318pt"
 viewBox="0.00 0.00 818.00 318.00" xmlns="http://www.w3.org/2000/svg" xmlns:xlink="http://www.w3.org/1999/xlink">
<g id="graph0" class="graph" transform="scale(1 1) rotate(0) translate(4 313.5)">
<polygon fill="white" stroke="none" points="-4,4 -4,-313.5 813.77,-313.5 813.77,4 -4,4"/>
<g id="clust2" class="cluster">
<title>cluster_associated</title>
</g>
<!-- TimePeriodOfDay -->
<g id="node1" class="node">
<title>TimePeriodOfDay</title>
<g id="a_node1"><a xlink:href="../classes/itsTime__TimePeriodOfDay.md" xlink:title="&lt;TABLE&gt;">
<polygon fill="lightgray" stroke="none" points="208.12,-184.38 208.12,-200.62 305.38,-200.62 305.38,-184.38 208.12,-184.38"/>
<text xml:space="preserve" text-anchor="start" x="209.12" y="-188.22" font-family="Arial" font-size="12.00">TimePeriodOfDay</text>
<polygon fill="none" stroke="black" points="207.12,-183.38 207.12,-201.62 306.38,-201.62 306.38,-183.38 207.12,-183.38"/>
</a>
</g>
</g>
<!-- TimeThing -->
<g id="node2" class="node">
<title>TimeThing</title>
<g id="a_node2"><a xlink:href="../_counters/itsTime__TimeThing.md" xlink:title="&lt;TABLE&gt;">
<polygon fill="lightgray" stroke="none" points="138.25,-283.38 138.25,-299.62 197.25,-299.62 197.25,-283.38 138.25,-283.38"/>
<text xml:space="preserve" text-anchor="start" x="139.25" y="-287.23" font-family="Arial" font-size="12.00">TimeThing</text>
<polygon fill="none" stroke="black" points="137.25,-282.38 137.25,-300.62 198.25,-300.62 198.25,-282.38 137.25,-282.38"/>
</a>
</g>
</g>
<!-- TimePeriodOfDay&#45;&gt;TimeThing -->
<g id="edge1" class="edge">
<title>TimePeriodOfDay&#45;&gt;TimeThing</title>
<path fill="none" stroke="black" d="M207.43,-208.66C197.75,-213.63 188.51,-220.11 181.75,-228.5 174.09,-238 170.44,-250.87 168.76,-262.41"/>
<polygon fill="none" stroke="black" points="165.29,-261.97 167.79,-272.26 172.25,-262.66 165.29,-261.97"/>
</g>
<!-- Invis -->
<!-- TimePeriodOfDay&#45;&gt;Invis -->
<!-- nc9411b7b35684569a3e72dc81cbf3841b37 -->
<g id="node6" class="node">
<title>nc9411b7b35684569a3e72dc81cbf3841b37</title>
<polygon fill="lightyellow" stroke="none" points="0,-282.38 0,-300.62 59.5,-300.62 59.5,-282.38 0,-282.38"/>
<text xml:space="preserve" text-anchor="start" x="2" y="-287.23" font-family="Arial" font-size="12.00">«unionOf»</text>
<polygon fill="none" stroke="black" points="0,-282.38 0,-300.62 59.5,-300.62 59.5,-282.38 0,-282.38"/>
</g>
<!-- TimePeriodOfDay&#45;&gt;nc9411b7b35684569a3e72dc81cbf3841b37 -->
<g id="edge7" class="edge">
<title>TimePeriodOfDay&#45;&gt;nc9411b7b35684569a3e72dc81cbf3841b37</title>
<path fill="none" stroke="black" d="M207.51,-193.52C168.97,-195.67 115.43,-203.52 75.75,-228.5 62.06,-237.12 51.05,-251.4 43.24,-264.08"/>
<polygon fill="black" stroke="black" points="40.37,-262.04 38.42,-272.46 46.44,-265.53 40.37,-262.04"/>
<text xml:space="preserve" text-anchor="middle" x="120.75" y="-245.05" font-family="Arial" font-size="11.00"> endTimeOfPeriod </text>
<text xml:space="preserve" text-anchor="middle" x="120.75" y="-231.55" font-family="Arial" font-size="11.00"> «only» &#160;</text>
</g>
<!-- nc9411b7b35684569a3e72dc81cbf3841b41 -->
<g id="node7" class="node">
<title>nc9411b7b35684569a3e72dc81cbf3841b41</title>
<polygon fill="lightyellow" stroke="none" points="493,-282.38 493,-300.62 552.5,-300.62 552.5,-282.38 493,-282.38"/>
<text xml:space="preserve" text-anchor="start" x="495" y="-287.23" font-family="Arial" font-size="12.00">«unionOf»</text>
<polygon fill="none" stroke="black" points="493,-282.38 493,-300.62 552.5,-300.62 552.5,-282.38 493,-282.38"/>
</g>
<!-- TimePeriodOfDay&#45;&gt;nc9411b7b35684569a3e72dc81cbf3841b41 -->
<g id="edge10" class="edge">
<title>TimePeriodOfDay&#45;&gt;nc9411b7b35684569a3e72dc81cbf3841b41</title>
<path fill="none" stroke="black" d="M298.36,-210.46C330.3,-223.29 375.58,-241.11 415.75,-255.5 437.54,-263.3 462.07,-271.38 482.13,-277.8"/>
<polygon fill="black" stroke="black" points="481.05,-281.13 491.64,-280.82 483.17,-274.46 481.05,-281.13"/>
<text xml:space="preserve" text-anchor="middle" x="462.25" y="-245.05" font-family="Arial" font-size="11.00"> startTimeOfPeriod </text>
<text xml:space="preserve" text-anchor="middle" x="462.25" y="-231.55" font-family="Arial" font-size="11.00"> «only» &#160;</text>
</g>
<!-- nc9411b7b35684569a3e72dc81cbf3841b45 -->
<g id="node8" class="node">
<title>nc9411b7b35684569a3e72dc81cbf3841b45</title>
<polygon fill="lightyellow" stroke="none" points="392,-282.38 392,-300.62 451.5,-300.62 451.5,-282.38 392,-282.38"/>
<text xml:space="preserve" text-anchor="start" x="394" y="-287.23" font-family="Arial" font-size="12.00">«unionOf»</text>
<polygon fill="none" stroke="black" points="392,-282.38 392,-300.62 451.5,-300.62 451.5,-282.38 392,-282.38"/>
</g>
<!-- TimePeriodOfDay&#45;&gt;nc9411b7b35684569a3e72dc81cbf3841b45 -->
<g id="edge13" class="edge">
<title>TimePeriodOfDay&#45;&gt;nc9411b7b35684569a3e72dc81cbf3841b45</title>
<path fill="none" stroke="black" d="M218.71,-210.48C211.91,-215.3 205.73,-221.26 201.75,-228.5 195.98,-239.02 193.96,-246.37 201.75,-255.5 224.36,-281.99 324.03,-288.53 381.16,-290.08"/>
<polygon fill="black" stroke="black" points="380.73,-293.57 390.8,-290.3 380.89,-286.57 380.73,-293.57"/>
<text xml:space="preserve" text-anchor="middle" x="246.75" y="-245.05" font-family="Arial" font-size="11.00"> endTimeOfPeriod </text>
<text xml:space="preserve" text-anchor="middle" x="246.75" y="-231.55" font-family="Arial" font-size="11.00"> «exactly 1» &#160;</text>
</g>
<!-- nc9411b7b35684569a3e72dc81cbf3841b49 -->
<g id="node9" class="node">
<title>nc9411b7b35684569a3e72dc81cbf3841b49</title>
<polygon fill="lightyellow" stroke="none" points="659,-282.38 659,-300.62 718.5,-300.62 718.5,-282.38 659,-282.38"/>
<text xml:space="preserve" text-anchor="start" x="661" y="-287.23" font-family="Arial" font-size="12.00">«unionOf»</text>
<polygon fill="none" stroke="black" points="659,-282.38 659,-300.62 718.5,-300.62 718.5,-282.38 659,-282.38"/>
</g>
<!-- TimePeriodOfDay&#45;&gt;nc9411b7b35684569a3e72dc81cbf3841b49 -->
<g id="edge16" class="edge">
<title>TimePeriodOfDay&#45;&gt;nc9411b7b35684569a3e72dc81cbf3841b49</title>
<path fill="none" stroke="black" d="M306.31,-201.33C339.73,-206.5 384.84,-213.26 424.75,-218.5 463.78,-223.62 474.54,-219.03 512.75,-228.5 544.71,-236.43 550.75,-244.38 581.75,-255.5 603.53,-263.32 628.06,-271.39 648.13,-277.81"/>
<polygon fill="black" stroke="black" points="647.04,-281.14 657.63,-280.83 649.16,-274.47 647.04,-281.14"/>
<text xml:space="preserve" text-anchor="middle" x="628.25" y="-245.05" font-family="Arial" font-size="11.00"> startTimeOfPeriod </text>
<text xml:space="preserve" text-anchor="middle" x="628.25" y="-231.55" font-family="Arial" font-size="11.00"> «exactly 1» &#160;</text>
</g>
<!-- FuzzyTime -->
<g id="node4" class="node">
<title>FuzzyTime</title>
<g id="a_node4"><a xlink:href="../_counters/itsTime__FuzzyTime.md" xlink:title="&lt;TABLE&gt;">
<polygon fill="lightgray" stroke="none" points="568.5,-98.88 568.5,-115.12 629,-115.12 629,-98.88 568.5,-98.88"/>
<text xml:space="preserve" text-anchor="start" x="569.5" y="-102.72" font-family="Arial" font-size="12.00">FuzzyTime</text>
<polygon fill="none" stroke="black" points="567.5,-97.88 567.5,-116.12 630,-116.12 630,-97.88 567.5,-97.88"/>
</a>
</g>
</g>
<!-- Invis&#45;&gt;FuzzyTime -->
<!-- time__Instant -->
<g id="node5" class="node">
<title>time__Instant</title>
<polygon fill="lightgray" stroke="none" points="567.88,-25.88 567.88,-42.12 633.62,-42.12 633.62,-25.88 567.88,-25.88"/>
<text xml:space="preserve" text-anchor="start" x="568.88" y="-29.73" font-family="Arial" font-size="12.00">time::Instant</text>
<polygon fill="none" stroke="black" points="566.88,-24.88 566.88,-43.12 634.62,-43.12 634.62,-24.88 566.88,-24.88"/>
</g>
<!-- FuzzyTime&#45;&gt;time__Instant -->
<!-- nc9411b7b35684569a3e72dc81cbf3841b37&#45;&gt;FuzzyTime -->
<g id="edge6" class="edge">
<title>nc9411b7b35684569a3e72dc81cbf3841b37&#45;&gt;FuzzyTime</title>
<path fill="none" stroke="black" stroke-dasharray="1,5" d="M30.29,-273.77C31.54,-260.2 35.24,-241.3 45.75,-228.5 80.88,-185.71 105.1,-190.81 158,-174.5 300.02,-130.71 477.01,-115.2 556.57,-110.18"/>
<polygon fill="black" stroke="black" points="556.31,-113.7 566.08,-109.6 555.88,-106.71 556.31,-113.7"/>
<text xml:space="preserve" text-anchor="middle" x="177.88" y="-188.8" font-family="Arial" font-size="11.00">member</text>
</g>
<!-- nc9411b7b35684569a3e72dc81cbf3841b37&#45;&gt;time__Instant -->
<g id="edge5" class="edge">
<title>nc9411b7b35684569a3e72dc81cbf3841b37&#45;&gt;time__Instant</title>
<path fill="none" stroke="black" stroke-dasharray="1,5" d="M27.06,-273.64C24.02,-247.93 22.7,-199.31 50.75,-174.5 126.99,-107.07 438.54,-57.6 555.82,-41.04"/>
<polygon fill="black" stroke="black" points="556.28,-44.5 565.7,-39.65 555.31,-37.57 556.28,-44.5"/>
<text xml:space="preserve" text-anchor="middle" x="124.38" y="-146.05" font-family="Arial" font-size="11.00">member</text>
</g>
<!-- nc9411b7b35684569a3e72dc81cbf3841b41&#45;&gt;FuzzyTime -->
<g id="edge9" class="edge">
<title>nc9411b7b35684569a3e72dc81cbf3841b41&#45;&gt;FuzzyTime</title>
<path fill="none" stroke="black" stroke-dasharray="1,5" d="M520.6,-273.85C518.32,-250.47 516.9,-207.14 532,-174.5 539.59,-158.1 553.07,-143.46 565.93,-132.13"/>
<polygon fill="black" stroke="black" points="568.07,-134.9 573.5,-125.8 563.58,-129.53 568.07,-134.9"/>
<text xml:space="preserve" text-anchor="middle" x="551.88" y="-188.8" font-family="Arial" font-size="11.00">member</text>
</g>
<!-- nc9411b7b35684569a3e72dc81cbf3841b41&#45;&gt;time__Instant -->
<g id="edge8" class="edge">
<title>nc9411b7b35684569a3e72dc81cbf3841b41&#45;&gt;time__Instant</title>
<path fill="none" stroke="black" stroke-dasharray="1,5" d="M528.38,-273.59C534.23,-258.93 544.93,-238.53 561.75,-228.5 590.83,-211.17 690.61,-243.21 713.75,-218.5 760.72,-168.34 682.13,-95.7 633.97,-58.66"/>
<polygon fill="black" stroke="black" points="636.38,-56.09 626.29,-52.87 632.16,-61.68 636.38,-56.09"/>
<text xml:space="preserve" text-anchor="middle" x="741.7" y="-146.05" font-family="Arial" font-size="11.00">member</text>
</g>
<!-- nc9411b7b35684569a3e72dc81cbf3841b45&#45;&gt;FuzzyTime -->
<g id="edge12" class="edge">
<title>nc9411b7b35684569a3e72dc81cbf3841b45&#45;&gt;FuzzyTime</title>
<path fill="none" stroke="black" stroke-dasharray="1,5" d="M428.32,-273.52C439.55,-245.15 462.59,-189.73 477,-174.5 499.09,-151.15 531.23,-134.08 556.94,-123.08"/>
<polygon fill="black" stroke="black" points="558.2,-126.35 566.12,-119.31 555.54,-119.87 558.2,-126.35"/>
<text xml:space="preserve" text-anchor="middle" x="496.88" y="-188.8" font-family="Arial" font-size="11.00">member</text>
</g>
<!-- nc9411b7b35684569a3e72dc81cbf3841b45&#45;&gt;time__Instant -->
<g id="edge11" class="edge">
<title>nc9411b7b35684569a3e72dc81cbf3841b45&#45;&gt;time__Instant</title>
<path fill="none" stroke="black" stroke-dasharray="1,5" d="M421.84,-273.56C422.76,-244.51 428.06,-184.35 455,-143 480.16,-104.38 524.19,-74.62 557.29,-56.21"/>
<polygon fill="black" stroke="black" points="558.72,-59.42 565.85,-51.58 555.39,-53.26 558.72,-59.42"/>
<text xml:space="preserve" text-anchor="middle" x="474.88" y="-146.05" font-family="Arial" font-size="11.00">member</text>
</g>
<!-- nc9411b7b35684569a3e72dc81cbf3841b49&#45;&gt;FuzzyTime -->
<g id="edge15" class="edge">
<title>nc9411b7b35684569a3e72dc81cbf3841b49&#45;&gt;FuzzyTime</title>
<path fill="none" stroke="black" stroke-dasharray="1,5" d="M686.32,-273.52C684.18,-260.83 680.48,-243.2 674.75,-228.5 661.02,-193.26 636.57,-157.12 619.11,-133.73"/>
<polygon fill="black" stroke="black" points="622.09,-131.87 613.25,-126.03 616.52,-136.11 622.09,-131.87"/>
<text xml:space="preserve" text-anchor="middle" x="689.65" y="-188.8" font-family="Arial" font-size="11.00">member</text>
</g>
<!-- nc9411b7b35684569a3e72dc81cbf3841b49&#45;&gt;time__Instant -->
<g id="edge14" class="edge">
<title>nc9411b7b35684569a3e72dc81cbf3841b49&#45;&gt;time__Instant</title>
<path fill="none" stroke="black" stroke-dasharray="1,5" d="M708.47,-273.92C738.13,-246.86 788.45,-191.38 765.75,-143 742.83,-94.17 685.63,-64.54 645.02,-48.97"/>
<polygon fill="black" stroke="black" points="646.32,-45.72 635.73,-45.56 643.91,-52.29 646.32,-45.72"/>
<text xml:space="preserve" text-anchor="middle" x="789.89" y="-146.05" font-family="Arial" font-size="11.00">member</text>
</g>
</g>
</svg>
