<?xml version="1.0" encoding="UTF-8" standalone="no"?>
<!DOCTYPE svg PUBLIC "-//W3C//DTD SVG 1.1//EN"
 "http://www.w3.org/Graphics/SVG/1.1/DTD/svg11.dtd">
<!-- Generated by graphviz version 14.0.2 (20251019.1705)
 -->
<!-- Pages: 1 -->
<svg width="356pt" height="132pt"
 viewBox="0.00 0.00 356.00 132.00" xmlns="http://www.w3.org/2000/svg" xmlns:xlink="http://www.w3.org/1999/xlink">
<g id="graph0" class="graph" transform="scale(1 1) rotate(0) translate(4 128)">
<polygon fill="white" stroke="none" points="-4,4 -4,-128 351.88,-128 351.88,4 -4,4"/>
<g id="clust2" class="cluster">
<title>cluster_associated</title>
</g>
<!-- PublicHoliday -->
<g id="node1" class="node">
<title>PublicHoliday</title>
<g id="a_node1"><a xlink:href="../classes/itsTime__PublicHoliday.md" xlink:title="&lt;TABLE&gt;">
<polygon fill="lightgray" stroke="none" points="1,-34 1,-50.25 258.75,-50.25 258.75,-34 1,-34"/>
<text xml:space="preserve" text-anchor="start" x="92.38" y="-37.85" font-family="Arial" font-size="12.00">PublicHoliday</text>
<text xml:space="preserve" text-anchor="start" x="2" y="-21.6" font-family="Arial" font-size="12.00">genProp::hasName: xsd::string «exactly 1, only»</text>
<polygon fill="none" stroke="black" points="0,-16.75 0,-51.25 259.75,-51.25 259.75,-16.75 0,-16.75"/>
</a>
</g>
</g>
<!-- SpecialDay -->
<g id="node2" class="node">
<title>SpecialDay</title>
<g id="a_node2"><a xlink:href="../_counters/itsTime__SpecialDay.md" xlink:title="&lt;TABLE&gt;">
<polygon fill="lightgray" stroke="none" points="97.75,-97.88 97.75,-114.12 162,-114.12 162,-97.88 97.75,-97.88"/>
<text xml:space="preserve" text-anchor="start" x="98.75" y="-101.72" font-family="Arial" font-size="12.00">SpecialDay</text>
<polygon fill="none" stroke="black" points="96.75,-96.88 96.75,-115.12 163,-115.12 163,-96.88 96.75,-96.88"/>
</a>
</g>
</g>
<!-- PublicHoliday&#45;&gt;SpecialDay -->
<g id="edge1" class="edge">
<title>PublicHoliday&#45;&gt;SpecialDay</title>
<path fill="none" stroke="black" d="M129.88,-51.79C129.88,-59.25 129.88,-68.24 129.88,-76.69"/>
<polygon fill="none" stroke="black" points="126.38,-76.54 129.88,-86.54 133.38,-76.54 126.38,-76.54"/>
</g>
<!-- Invis -->
</g>
</svg>
