<?xml version="1.0" encoding="UTF-8" standalone="no"?>
<!DOCTYPE svg PUBLIC "-//W3C//DTD SVG 1.1//EN"
 "http://www.w3.org/Graphics/SVG/1.1/DTD/svg11.dtd">
<!-- Generated by graphviz version 14.0.2 (20251019.1705)
 -->
<!-- Pages: 1 -->
<svg width="409pt" height="435pt"
 viewBox="0.00 0.00 409.00 435.00" xmlns="http://www.w3.org/2000/svg" xmlns:xlink="http://www.w3.org/1999/xlink">
<g id="graph0" class="graph" transform="scale(1 1) rotate(0) translate(4 431)">
<polygon fill="white" stroke="none" points="-4,4 -4,-431 405.34,-431 405.34,4 -4,4"/>
<g id="clust2" class="cluster">
<title>cluster_associated</title>
</g>
<!-- Period -->
<g id="node1" class="node">
<title>Period</title>
<g id="a_node1"><a xlink:href="../classes/itsTime__Period.md" xlink:title="&lt;TABLE&gt;">
<polygon fill="lightgray" stroke="none" points="132.62,-336.75 132.62,-353 375.38,-353 375.38,-336.75 132.62,-336.75"/>
<text xml:space="preserve" text-anchor="start" x="236.38" y="-340.6" font-family="Arial" font-size="12.00">Period</text>
<text xml:space="preserve" text-anchor="start" x="133.62" y="-324.35" font-family="Arial" font-size="12.00">endOfPeriod: xsd::dateTime «max 1, only»</text>
<text xml:space="preserve" text-anchor="start" x="133.62" y="-308.1" font-family="Arial" font-size="12.00">genProp::hasName: xsd::string «max 1, only»</text>
<text xml:space="preserve" text-anchor="start" x="133.62" y="-291.85" font-family="Arial" font-size="12.00">startOfPeriod: xsd::dateTime «max 1, only»</text>
<polygon fill="none" stroke="black" points="131.62,-287 131.62,-354 376.38,-354 376.38,-287 131.62,-287"/>
</a>
</g>
</g>
<!-- TimeThing -->
<g id="node2" class="node">
<title>TimeThing</title>
<g id="a_node2"><a xlink:href="../_counters/itsTime__TimeThing.md" xlink:title="&lt;TABLE&gt;">
<polygon fill="lightgray" stroke="none" points="224.5,-400.88 224.5,-417.12 283.5,-417.12 283.5,-400.88 224.5,-400.88"/>
<text xml:space="preserve" text-anchor="start" x="225.5" y="-404.73" font-family="Arial" font-size="12.00">TimeThing</text>
<polygon fill="none" stroke="black" points="223.5,-399.88 223.5,-418.12 284.5,-418.12 284.5,-399.88 223.5,-399.88"/>
</a>
</g>
</g>
<!-- Period&#45;&gt;TimeThing -->
<g id="edge1" class="edge">
<title>Period&#45;&gt;TimeThing</title>
<path fill="none" stroke="black" d="M254,-353.89C254,-362.45 254,-371.62 254,-379.93"/>
<polygon fill="none" stroke="black" points="250.5,-379.81 254,-389.81 257.5,-379.81 250.5,-379.81"/>
</g>
<!-- Invis -->
<!-- Period&#45;&gt;Invis -->
<!-- DaySelector -->
<g id="node4" class="node">
<title>DaySelector</title>
<g id="a_node4"><a xlink:href="../_counters/itsTime__DaySelector.md" xlink:title="&lt;TABLE&gt;">
<polygon fill="lightgray" stroke="none" points="42,-197.88 42,-214.12 110,-214.12 110,-197.88 42,-197.88"/>
<text xml:space="preserve" text-anchor="start" x="43" y="-201.72" font-family="Arial" font-size="12.00">DaySelector</text>
<polygon fill="none" stroke="black" points="41,-196.88 41,-215.12 111,-215.12 111,-196.88 41,-196.88"/>
</a>
</g>
</g>
<!-- Period&#45;&gt;DaySelector -->
<g id="edge6" class="edge">
<title>Period&#45;&gt;DaySelector</title>
<path fill="none" stroke="black" d="M132.58,-287.11C104.21,-279.01 81.48,-271.81 79.25,-269 71.84,-259.66 70.22,-246.82 70.78,-235.25"/>
<polygon fill="black" stroke="black" points="74.26,-235.67 71.84,-225.35 67.3,-234.93 74.26,-235.67"/>
<text xml:space="preserve" text-anchor="middle" x="118.62" y="-258.55" font-family="Arial" font-size="11.00"> applicableDays </text>
<text xml:space="preserve" text-anchor="middle" x="118.62" y="-245.05" font-family="Arial" font-size="11.00"> «only» &#160;</text>
</g>
<!-- SpecialDay -->
<g id="node5" class="node">
<title>SpecialDay</title>
<g id="a_node5"><a xlink:href="../_counters/itsTime__SpecialDay.md" xlink:title="&lt;TABLE&gt;">
<polygon fill="lightgray" stroke="none" points="43.88,-98.88 43.88,-115.12 108.12,-115.12 108.12,-98.88 43.88,-98.88"/>
<text xml:space="preserve" text-anchor="start" x="44.88" y="-102.72" font-family="Arial" font-size="12.00">SpecialDay</text>
<polygon fill="none" stroke="black" points="42.88,-97.88 42.88,-116.12 109.12,-116.12 109.12,-97.88 42.88,-97.88"/>
</a>
</g>
</g>
<!-- Period&#45;&gt;SpecialDay -->
<g id="edge7" class="edge">
<title>Period&#45;&gt;SpecialDay</title>
<path fill="none" stroke="black" d="M226.97,-287.38C191.49,-245.23 129.94,-172.09 97.47,-133.51"/>
<polygon fill="black" stroke="black" points="100.35,-131.49 91.23,-126.09 94.99,-136 100.35,-131.49"/>
<text xml:space="preserve" text-anchor="middle" x="222.68" y="-209.05" font-family="Arial" font-size="11.00"> recurringSpecialDay </text>
<text xml:space="preserve" text-anchor="middle" x="222.68" y="-195.55" font-family="Arial" font-size="11.00"> «only» &#160;</text>
</g>
<!-- TimePeriodOfDay -->
<g id="node6" class="node">
<title>TimePeriodOfDay</title>
<g id="a_node6"><a xlink:href="../_counters/itsTime__TimePeriodOfDay.md" xlink:title="&lt;TABLE&gt;">
<polygon fill="lightgray" stroke="none" points="17.38,-25.88 17.38,-42.12 114.62,-42.12 114.62,-25.88 17.38,-25.88"/>
<text xml:space="preserve" text-anchor="start" x="18.38" y="-29.73" font-family="Arial" font-size="12.00">TimePeriodOfDay</text>
<polygon fill="none" stroke="black" points="16.38,-24.88 16.38,-43.12 115.62,-43.12 115.62,-24.88 16.38,-24.88"/>
</a>
</g>
</g>
<!-- Period&#45;&gt;TimePeriodOfDay -->
<g id="edge8" class="edge">
<title>Period&#45;&gt;TimePeriodOfDay</title>
<path fill="none" stroke="black" d="M270.85,-287.03C282.74,-259.34 293.96,-219.2 278,-188 245.12,-123.73 171.27,-80.27 120.05,-56.56"/>
<polygon fill="black" stroke="black" points="121.74,-53.48 111.18,-52.56 118.86,-59.86 121.74,-53.48"/>
<text xml:space="preserve" text-anchor="middle" x="334.21" y="-159.55" font-family="Arial" font-size="11.00"> recurringTimePeriodOfDay </text>
<text xml:space="preserve" text-anchor="middle" x="334.21" y="-146.05" font-family="Arial" font-size="11.00"> «only» &#160;</text>
</g>
<!-- Invis&#45;&gt;DaySelector -->
<!-- DaySelector&#45;&gt;SpecialDay -->
<!-- SpecialDay&#45;&gt;TimePeriodOfDay -->
</g>
</svg>
