<?xml version="1.0" encoding="UTF-8" standalone="no"?>
<!DOCTYPE svg PUBLIC "-//W3C//DTD SVG 1.1//EN"
 "http://www.w3.org/Graphics/SVG/1.1/DTD/svg11.dtd">
<!-- Generated by graphviz version 14.0.2 (20251019.1705)
 -->
<!-- Pages: 1 -->
<svg width="312pt" height="305pt"
 viewBox="0.00 0.00 312.00 305.00" xmlns="http://www.w3.org/2000/svg" xmlns:xlink="http://www.w3.org/1999/xlink">
<g id="graph0" class="graph" transform="scale(1 1) rotate(0) translate(4 301)">
<polygon fill="white" stroke="none" points="-4,4 -4,-301 307.88,-301 307.88,4 -4,4"/>
<g id="clust2" class="cluster">
<title>cluster_associated</title>
</g>
<!-- FuzzyTime -->
<g id="node1" class="node">
<title>FuzzyTime</title>
<g id="a_node1"><a xlink:href="../classes/itsTime__FuzzyTime.md" xlink:title="&lt;TABLE&gt;">
<polygon fill="lightgray" stroke="none" points="111.12,-206 111.12,-222.25 302.88,-222.25 302.88,-206 111.12,-206"/>
<text xml:space="preserve" text-anchor="start" x="177.75" y="-209.85" font-family="Arial" font-size="12.00">FuzzyTime</text>
<text xml:space="preserve" text-anchor="start" x="112.12" y="-193.6" font-family="Arial" font-size="12.00">after: xsd::boolean «exactly 1, only»</text>
<polygon fill="none" stroke="black" points="110.12,-188.75 110.12,-223.25 303.88,-223.25 303.88,-188.75 110.12,-188.75"/>
</a>
</g>
</g>
<!-- TimeThing -->
<g id="node2" class="node">
<title>TimeThing</title>
<g id="a_node2"><a xlink:href="../_counters/itsTime__TimeThing.md" xlink:title="&lt;TABLE&gt;">
<polygon fill="lightgray" stroke="none" points="177.5,-270.88 177.5,-287.12 236.5,-287.12 236.5,-270.88 177.5,-270.88"/>
<text xml:space="preserve" text-anchor="start" x="178.5" y="-274.73" font-family="Arial" font-size="12.00">TimeThing</text>
<polygon fill="none" stroke="black" points="176.5,-269.88 176.5,-288.12 237.5,-288.12 237.5,-269.88 176.5,-269.88"/>
</a>
</g>
</g>
<!-- FuzzyTime&#45;&gt;TimeThing -->
<g id="edge1" class="edge">
<title>FuzzyTime&#45;&gt;TimeThing</title>
<path fill="none" stroke="black" d="M207,-223.71C207,-231.47 207,-240.92 207,-249.74"/>
<polygon fill="none" stroke="black" points="203.5,-249.66 207,-259.66 210.5,-249.66 203.5,-249.66"/>
</g>
<!-- Invis -->
<!-- FuzzyTime&#45;&gt;Invis -->
<!-- code__Code -->
<g id="node4" class="node">
<title>code__Code</title>
<polygon fill="lightgray" stroke="none" points="23.25,-98.88 23.25,-115.12 86.75,-115.12 86.75,-98.88 23.25,-98.88"/>
<text xml:space="preserve" text-anchor="start" x="24.25" y="-102.72" font-family="Arial" font-size="12.00">code::Code</text>
<polygon fill="none" stroke="black" points="22.25,-97.88 22.25,-116.12 87.75,-116.12 87.75,-97.88 22.25,-97.88"/>
</g>
<!-- FuzzyTime&#45;&gt;code__Code -->
<g id="edge6" class="edge">
<title>FuzzyTime&#45;&gt;code__Code</title>
<path fill="none" stroke="black" d="M133.69,-188.09C121.61,-183.4 109.72,-177.47 99.5,-170 86.88,-160.77 76.45,-146.88 68.86,-134.59"/>
<polygon fill="black" stroke="black" points="71.97,-132.98 63.93,-126.08 65.91,-136.49 71.97,-132.98"/>
<text xml:space="preserve" text-anchor="middle" x="143.75" y="-159.55" font-family="Arial" font-size="11.00"> timeReference </text>
<text xml:space="preserve" text-anchor="middle" x="143.75" y="-146.05" font-family="Arial" font-size="11.00"> «exactly 1, only» &#160;</text>
</g>
<!-- time__Duration -->
<g id="node5" class="node">
<title>time__Duration</title>
<polygon fill="lightgray" stroke="none" points="16.88,-25.88 16.88,-42.12 93.12,-42.12 93.12,-25.88 16.88,-25.88"/>
<text xml:space="preserve" text-anchor="start" x="17.88" y="-29.73" font-family="Arial" font-size="12.00">time::Duration</text>
<polygon fill="none" stroke="black" points="15.88,-24.88 15.88,-43.12 94.12,-43.12 94.12,-24.88 15.88,-24.88"/>
</g>
<!-- FuzzyTime&#45;&gt;time__Duration -->
<g id="edge5" class="edge">
<title>FuzzyTime&#45;&gt;time__Duration</title>
<path fill="none" stroke="black" d="M204.58,-188.05C202.07,-174.88 197.19,-156.63 188,-143 163.8,-107.1 124.13,-77.11 94.4,-57.92"/>
<polygon fill="black" stroke="black" points="96.34,-55 86.01,-52.64 92.61,-60.93 96.34,-55"/>
<text xml:space="preserve" text-anchor="middle" x="218.18" y="-110.05" font-family="Arial" font-size="11.00"> offset </text>
<text xml:space="preserve" text-anchor="middle" x="218.18" y="-96.55" font-family="Arial" font-size="11.00"> «exactly 1, only» &#160;</text>
</g>
<!-- Invis&#45;&gt;code__Code -->
<!-- code__Code&#45;&gt;time__Duration -->
</g>
</svg>
