<?xml version="1.0" encoding="UTF-8" standalone="no"?>
<!DOCTYPE svg PUBLIC "-//W3C//DTD SVG 1.1//EN"
 "http://www.w3.org/Graphics/SVG/1.1/DTD/svg11.dtd">
<!-- Generated by graphviz version 14.0.2 (20251019.1705)
 -->
<!-- Pages: 1 -->
<svg width="408pt" height="247pt"
 viewBox="0.00 0.00 408.00 247.00" xmlns="http://www.w3.org/2000/svg" xmlns:xlink="http://www.w3.org/1999/xlink">
<g id="graph0" class="graph" transform="scale(1 1) rotate(0) translate(4 242.75)">
<polygon fill="white" stroke="none" points="-4,4 -4,-242.75 403.75,-242.75 403.75,4 -4,4"/>
<g id="clust2" class="cluster">
<title>cluster_associated</title>
</g>
<!-- DaySelector -->
<g id="node1" class="node">
<title>DaySelector</title>
<g id="a_node1"><a xlink:href="../classes/itsTime__DaySelector.md" xlink:title="&lt;TABLE&gt;">
<polygon fill="lightgray" stroke="none" points="131.25,-148.5 131.25,-164.75 398.75,-164.75 398.75,-148.5 131.25,-148.5"/>
<text xml:space="preserve" text-anchor="start" x="232" y="-152.35" font-family="Arial" font-size="12.00">DaySelector</text>
<text xml:space="preserve" text-anchor="start" x="132.25" y="-136.1" font-family="Arial" font-size="12.00">applicableDayOfMonth: xsd::gDay «max 30, only»</text>
<text xml:space="preserve" text-anchor="start" x="132.25" y="-119.85" font-family="Arial" font-size="12.00">applicableMonth: xsd::gMonth «max 11, only»</text>
<polygon fill="none" stroke="black" points="130.25,-115 130.25,-165.75 399.75,-165.75 399.75,-115 130.25,-115"/>
</a>
</g>
</g>
<!-- TimeThing -->
<g id="node2" class="node">
<title>TimeThing</title>
<g id="a_node2"><a xlink:href="../_counters/itsTime__TimeThing.md" xlink:title="&lt;TABLE&gt;">
<polygon fill="lightgray" stroke="none" points="235.5,-212.62 235.5,-228.88 294.5,-228.88 294.5,-212.62 235.5,-212.62"/>
<text xml:space="preserve" text-anchor="start" x="236.5" y="-216.47" font-family="Arial" font-size="12.00">TimeThing</text>
<polygon fill="none" stroke="black" points="234.5,-211.62 234.5,-229.88 295.5,-229.88 295.5,-211.62 234.5,-211.62"/>
</a>
</g>
</g>
<!-- DaySelector&#45;&gt;TimeThing -->
<g id="edge1" class="edge">
<title>DaySelector&#45;&gt;TimeThing</title>
<path fill="none" stroke="black" d="M265,-165.71C265,-173.97 265,-183.27 265,-191.79"/>
<polygon fill="none" stroke="black" points="261.5,-191.62 265,-201.62 268.5,-191.62 261.5,-191.62"/>
</g>
<!-- Invis -->
<!-- DaySelector&#45;&gt;Invis -->
<!-- time__DayOfWeek -->
<g id="node4" class="node">
<title>time__DayOfWeek</title>
<polygon fill="lightgray" stroke="none" points="17.5,-25.88 17.5,-42.12 112.5,-42.12 112.5,-25.88 17.5,-25.88"/>
<text xml:space="preserve" text-anchor="start" x="18.5" y="-29.73" font-family="Arial" font-size="12.00">time::DayOfWeek</text>
<polygon fill="none" stroke="black" points="16.5,-24.88 16.5,-43.12 113.5,-43.12 113.5,-24.88 16.5,-24.88"/>
</g>
<!-- DaySelector&#45;&gt;time__DayOfWeek -->
<g id="edge4" class="edge">
<title>DaySelector&#45;&gt;time__DayOfWeek</title>
<path fill="none" stroke="black" d="M218.36,-115.04C184.82,-97.53 139.96,-74.12 107.43,-57.14"/>
<polygon fill="black" stroke="black" points="109.16,-54.1 98.67,-52.57 105.92,-60.3 109.16,-54.1"/>
<text xml:space="preserve" text-anchor="middle" x="239.16" y="-86.55" font-family="Arial" font-size="11.00"> applicableDayOfWeek </text>
<text xml:space="preserve" text-anchor="middle" x="239.16" y="-73.05" font-family="Arial" font-size="11.00"> «max 6, only» &#160;</text>
</g>
<!-- Invis&#45;&gt;time__DayOfWeek -->
</g>
</svg>
