<?xml version="1.0" encoding="UTF-8" standalone="no"?>
<!DOCTYPE svg PUBLIC "-//W3C//DTD SVG 1.1//EN"
 "http://www.w3.org/Graphics/SVG/1.1/DTD/svg11.dtd">
<!-- Generated by graphviz version 14.0.2 (20251019.1705)
 -->
<!-- Pages: 1 -->
<svg width="338pt" height="305pt"
 viewBox="0.00 0.00 338.00 305.00" xmlns="http://www.w3.org/2000/svg" xmlns:xlink="http://www.w3.org/1999/xlink">
<g id="graph0" class="graph" transform="scale(1 1) rotate(0) translate(4 301)">
<polygon fill="white" stroke="none" points="-4,4 -4,-301 333.62,-301 333.62,4 -4,4"/>
<g id="clust2" class="cluster">
<title>cluster_associated</title>
</g>
<!-- Validity -->
<g id="node1" class="node">
<title>Validity</title>
<g id="a_node1"><a xlink:href="../classes/itsTime__Validity.md" xlink:title="&lt;TABLE&gt;">
<polygon fill="lightgray" stroke="none" points="111.38,-206 111.38,-222.25 328.62,-222.25 328.62,-206 111.38,-206"/>
<text xml:space="preserve" text-anchor="start" x="200.88" y="-209.85" font-family="Arial" font-size="12.00">Validity</text>
<text xml:space="preserve" text-anchor="start" x="112.38" y="-193.6" font-family="Arial" font-size="12.00">overrunning: xsd::boolean «max 1, only»</text>
<polygon fill="none" stroke="black" points="110.38,-188.75 110.38,-223.25 329.62,-223.25 329.62,-188.75 110.38,-188.75"/>
</a>
</g>
</g>
<!-- TimeThing -->
<g id="node2" class="node">
<title>TimeThing</title>
<g id="a_node2"><a xlink:href="../_counters/itsTime__TimeThing.md" xlink:title="&lt;TABLE&gt;">
<polygon fill="lightgray" stroke="none" points="190.5,-270.88 190.5,-287.12 249.5,-287.12 249.5,-270.88 190.5,-270.88"/>
<text xml:space="preserve" text-anchor="start" x="191.5" y="-274.73" font-family="Arial" font-size="12.00">TimeThing</text>
<polygon fill="none" stroke="black" points="189.5,-269.88 189.5,-288.12 250.5,-288.12 250.5,-269.88 189.5,-269.88"/>
</a>
</g>
</g>
<!-- Validity&#45;&gt;TimeThing -->
<g id="edge1" class="edge">
<title>Validity&#45;&gt;TimeThing</title>
<path fill="none" stroke="black" d="M220,-223.71C220,-231.47 220,-240.92 220,-249.74"/>
<polygon fill="none" stroke="black" points="216.5,-249.66 220,-259.66 223.5,-249.66 216.5,-249.66"/>
</g>
<!-- Invis -->
<!-- Validity&#45;&gt;Invis -->
<!-- code__Code -->
<g id="node4" class="node">
<title>code__Code</title>
<polygon fill="lightgray" stroke="none" points="23.25,-98.88 23.25,-115.12 86.75,-115.12 86.75,-98.88 23.25,-98.88"/>
<text xml:space="preserve" text-anchor="start" x="24.25" y="-102.72" font-family="Arial" font-size="12.00">code::Code</text>
<polygon fill="none" stroke="black" points="22.25,-97.88 22.25,-116.12 87.75,-116.12 87.75,-97.88 22.25,-97.88"/>
</g>
<!-- Validity&#45;&gt;code__Code -->
<g id="edge5" class="edge">
<title>Validity&#45;&gt;code__Code</title>
<path fill="none" stroke="black" d="M147,-188.09C133.93,-183.37 120.88,-177.42 109.5,-170 95.06,-160.58 82.15,-146.31 72.53,-133.84"/>
<polygon fill="black" stroke="black" points="75.49,-131.96 66.74,-125.98 69.85,-136.11 75.49,-131.96"/>
<text xml:space="preserve" text-anchor="middle" x="153.75" y="-159.55" font-family="Arial" font-size="11.00"> validityStatus </text>
<text xml:space="preserve" text-anchor="middle" x="153.75" y="-146.05" font-family="Arial" font-size="11.00"> «exactly 1, only» &#160;</text>
</g>
<!-- OverallPeriod -->
<g id="node5" class="node">
<title>OverallPeriod</title>
<g id="a_node5"><a xlink:href="../_counters/itsTime__OverallPeriod.md" xlink:title="&lt;TABLE&gt;">
<polygon fill="lightgray" stroke="none" points="17.25,-25.88 17.25,-42.12 92.75,-42.12 92.75,-25.88 17.25,-25.88"/>
<text xml:space="preserve" text-anchor="start" x="18.25" y="-29.73" font-family="Arial" font-size="12.00">OverallPeriod</text>
<polygon fill="none" stroke="black" points="16.25,-24.88 16.25,-43.12 93.75,-43.12 93.75,-24.88 16.25,-24.88"/>
</a>
</g>
</g>
<!-- Validity&#45;&gt;OverallPeriod -->
<g id="edge6" class="edge">
<title>Validity&#45;&gt;OverallPeriod</title>
<path fill="none" stroke="black" d="M216.83,-188.22C213.71,-174.97 207.92,-156.54 198,-143 171.28,-106.54 128.84,-76.68 97.12,-57.67"/>
<polygon fill="black" stroke="black" points="98.93,-54.68 88.54,-52.65 95.4,-60.72 98.93,-54.68"/>
<text xml:space="preserve" text-anchor="middle" x="243.68" y="-110.05" font-family="Arial" font-size="11.00"> validityTimeSpecification </text>
<text xml:space="preserve" text-anchor="middle" x="243.68" y="-96.55" font-family="Arial" font-size="11.00"> «exactly 1, only» &#160;</text>
</g>
<!-- Invis&#45;&gt;code__Code -->
<!-- code__Code&#45;&gt;OverallPeriod -->
</g>
</svg>
