<?xml version="1.0" encoding="UTF-8" standalone="no"?>
<!DOCTYPE svg PUBLIC "-//W3C//DTD SVG 1.1//EN"
 "http://www.w3.org/Graphics/SVG/1.1/DTD/svg11.dtd">
<!-- Generated by graphviz version 14.0.2 (20251019.1705)
 -->
<!-- Pages: 1 -->
<svg width="377pt" height="247pt"
 viewBox="0.00 0.00 377.00 247.00" xmlns="http://www.w3.org/2000/svg" xmlns:xlink="http://www.w3.org/1999/xlink">
<g id="graph0" class="graph" transform="scale(1 1) rotate(0) translate(4 242.75)">
<polygon fill="white" stroke="none" points="-4,4 -4,-242.75 372.75,-242.75 372.75,4 -4,4"/>
<g id="clust2" class="cluster">
<title>cluster_associated</title>
</g>
<!-- OverallPeriod -->
<g id="node1" class="node">
<title>OverallPeriod</title>
<g id="a_node1"><a xlink:href="../classes/itsTime__OverallPeriod.md" xlink:title="&lt;TABLE&gt;">
<polygon fill="lightgray" stroke="none" points="106.25,-148.5 106.25,-164.75 367.75,-164.75 367.75,-148.5 106.25,-148.5"/>
<text xml:space="preserve" text-anchor="start" x="200.25" y="-152.35" font-family="Arial" font-size="12.00">OverallPeriod</text>
<text xml:space="preserve" text-anchor="start" x="107.25" y="-136.1" font-family="Arial" font-size="12.00">overallEndTime: xsd::dateTime «max 1, only»</text>
<text xml:space="preserve" text-anchor="start" x="107.25" y="-119.85" font-family="Arial" font-size="12.00">overallStartTime: xsd::dateTime «exactly 1, only»</text>
<polygon fill="none" stroke="black" points="105.25,-115 105.25,-165.75 368.75,-165.75 368.75,-115 105.25,-115"/>
</a>
</g>
</g>
<!-- TimeThing -->
<g id="node2" class="node">
<title>TimeThing</title>
<g id="a_node2"><a xlink:href="../_counters/itsTime__TimeThing.md" xlink:title="&lt;TABLE&gt;">
<polygon fill="lightgray" stroke="none" points="207.5,-212.62 207.5,-228.88 266.5,-228.88 266.5,-212.62 207.5,-212.62"/>
<text xml:space="preserve" text-anchor="start" x="208.5" y="-216.47" font-family="Arial" font-size="12.00">TimeThing</text>
<polygon fill="none" stroke="black" points="206.5,-211.62 206.5,-229.88 267.5,-229.88 267.5,-211.62 206.5,-211.62"/>
</a>
</g>
</g>
<!-- OverallPeriod&#45;&gt;TimeThing -->
<g id="edge1" class="edge">
<title>OverallPeriod&#45;&gt;TimeThing</title>
<path fill="none" stroke="black" d="M237,-165.71C237,-173.97 237,-183.27 237,-191.79"/>
<polygon fill="none" stroke="black" points="233.5,-191.62 237,-201.62 240.5,-191.62 233.5,-191.62"/>
</g>
<!-- Invis -->
<!-- OverallPeriod&#45;&gt;Invis -->
<!-- Period -->
<g id="node4" class="node">
<title>Period</title>
<g id="a_node4"><a xlink:href="../_counters/itsTime__Period.md" xlink:title="&lt;TABLE&gt;">
<polygon fill="lightgray" stroke="none" points="24.38,-25.88 24.38,-42.12 61.62,-42.12 61.62,-25.88 24.38,-25.88"/>
<text xml:space="preserve" text-anchor="start" x="25.38" y="-29.73" font-family="Arial" font-size="12.00">Period</text>
<polygon fill="none" stroke="black" points="23.38,-24.88 23.38,-43.12 62.62,-43.12 62.62,-24.88 23.38,-24.88"/>
</a>
</g>
</g>
<!-- OverallPeriod&#45;&gt;Period -->
<g id="edge4" class="edge">
<title>OverallPeriod&#45;&gt;Period</title>
<path fill="none" stroke="black" d="M154.3,-115.11C141.04,-109.92 127.74,-103.88 115.75,-97 98.16,-86.9 80.78,-72.32 67.42,-59.83"/>
<polygon fill="black" stroke="black" points="69.99,-57.44 60.36,-53.04 65.14,-62.49 69.99,-57.44"/>
<text xml:space="preserve" text-anchor="middle" x="157.38" y="-86.55" font-family="Arial" font-size="11.00"> exceptionPeriod </text>
<text xml:space="preserve" text-anchor="middle" x="157.38" y="-73.05" font-family="Arial" font-size="11.00"> «only» &#160;</text>
</g>
<!-- OverallPeriod&#45;&gt;Period -->
<g id="edge5" class="edge">
<title>OverallPeriod&#45;&gt;Period</title>
<path fill="none" stroke="black" d="M229.48,-115C223.57,-99.83 213.81,-81.15 199,-70 164.78,-44.24 115.13,-36.82 81.09,-34.99"/>
<polygon fill="black" stroke="black" points="81.39,-31.5 71.27,-34.61 81.12,-38.49 81.39,-31.5"/>
<text xml:space="preserve" text-anchor="middle" x="250.28" y="-86.55" font-family="Arial" font-size="11.00"> validPeriod </text>
<text xml:space="preserve" text-anchor="middle" x="250.28" y="-73.05" font-family="Arial" font-size="11.00"> «only» &#160;</text>
</g>
<!-- Invis&#45;&gt;Period -->
</g>
</svg>
