<?xml version="1.0" encoding="UTF-8" standalone="no"?>
<!DOCTYPE svg PUBLIC "-//W3C//DTD SVG 1.1//EN"
 "http://www.w3.org/Graphics/SVG/1.1/DTD/svg11.dtd">
<!-- Generated by graphviz version 14.0.2 (20251019.1705)
 -->
<!-- Pages: 1 -->
<svg width="438pt" height="232pt"
 viewBox="0.00 0.00 438.00 232.00" xmlns="http://www.w3.org/2000/svg" xmlns:xlink="http://www.w3.org/1999/xlink">
<g id="graph0" class="graph" transform="scale(1 1) rotate(0) translate(4 228)">
<polygon fill="white" stroke="none" points="-4,4 -4,-228 434.12,-228 434.12,4 -4,4"/>
<g id="clust2" class="cluster">
<title>cluster_associated</title>
</g>
<!-- SpecialDay -->
<g id="node1" class="node">
<title>SpecialDay</title>
<g id="a_node1"><a xlink:href="../classes/itsTime__SpecialDay.md" xlink:title="&lt;TABLE&gt;">
<polygon fill="lightgray" stroke="none" points="106.88,-133 106.88,-149.25 429.12,-149.25 429.12,-133 106.88,-133"/>
<text xml:space="preserve" text-anchor="start" x="236.88" y="-136.85" font-family="Arial" font-size="12.00">SpecialDay</text>
<text xml:space="preserve" text-anchor="start" x="107.88" y="-120.6" font-family="Arial" font-size="12.00">intersectWithApplicableDays: xsd::boolean «exactly 1, only»</text>
<polygon fill="none" stroke="black" points="105.88,-115.75 105.88,-150.25 430.12,-150.25 430.12,-115.75 105.88,-115.75"/>
</a>
</g>
</g>
<!-- TimeThing -->
<g id="node2" class="node">
<title>TimeThing</title>
<g id="a_node2"><a xlink:href="../_counters/itsTime__TimeThing.md" xlink:title="&lt;TABLE&gt;">
<polygon fill="lightgray" stroke="none" points="238.5,-197.88 238.5,-214.12 297.5,-214.12 297.5,-197.88 238.5,-197.88"/>
<text xml:space="preserve" text-anchor="start" x="239.5" y="-201.72" font-family="Arial" font-size="12.00">TimeThing</text>
<polygon fill="none" stroke="black" points="237.5,-196.88 237.5,-215.12 298.5,-215.12 298.5,-196.88 237.5,-196.88"/>
</a>
</g>
</g>
<!-- SpecialDay&#45;&gt;TimeThing -->
<g id="edge1" class="edge">
<title>SpecialDay&#45;&gt;TimeThing</title>
<path fill="none" stroke="black" d="M268,-150.71C268,-158.47 268,-167.92 268,-176.74"/>
<polygon fill="none" stroke="black" points="264.5,-176.66 268,-186.66 271.5,-176.66 264.5,-176.66"/>
</g>
<!-- Invis -->
<!-- SpecialDay&#45;&gt;Invis -->
<!-- code__Code -->
<g id="node4" class="node">
<title>code__Code</title>
<polygon fill="lightgray" stroke="none" points="17.25,-25.88 17.25,-42.12 80.75,-42.12 80.75,-25.88 17.25,-25.88"/>
<text xml:space="preserve" text-anchor="start" x="18.25" y="-29.73" font-family="Arial" font-size="12.00">code::Code</text>
<polygon fill="none" stroke="black" points="16.25,-24.88 16.25,-43.12 81.75,-43.12 81.75,-24.88 16.25,-24.88"/>
</g>
<!-- SpecialDay&#45;&gt;code__Code -->
<g id="edge4" class="edge">
<title>SpecialDay&#45;&gt;code__Code</title>
<path fill="none" stroke="black" d="M197.2,-115.08C180.5,-110.11 162.98,-104.07 147.25,-97 124.02,-86.55 99.79,-71.32 81.21,-58.57"/>
<polygon fill="black" stroke="black" points="83.22,-55.71 73.02,-52.85 79.21,-61.45 83.22,-55.71"/>
<text xml:space="preserve" text-anchor="middle" x="185.12" y="-86.55" font-family="Arial" font-size="11.00"> publicEvent </text>
<text xml:space="preserve" text-anchor="middle" x="185.12" y="-73.05" font-family="Arial" font-size="11.00"> «max 1, only» &#160;</text>
</g>
<!-- SpecialDay&#45;&gt;code__Code -->
<g id="edge5" class="edge">
<title>SpecialDay&#45;&gt;code__Code</title>
<path fill="none" stroke="black" d="M260.18,-115.02C252.69,-100.73 240.01,-80.92 223,-70 183.81,-44.84 130.24,-37.19 92.94,-35.14"/>
<polygon fill="black" stroke="black" points="93.09,-31.65 82.95,-34.72 92.79,-38.64 93.09,-31.65"/>
<text xml:space="preserve" text-anchor="middle" x="293.22" y="-86.55" font-family="Arial" font-size="11.00"> specialDayType </text>
<text xml:space="preserve" text-anchor="middle" x="293.22" y="-73.05" font-family="Arial" font-size="11.00"> «exactly 1, only» &#160;</text>
</g>
<!-- Invis&#45;&gt;code__Code -->
</g>
</svg>
