<?xml version="1.0" encoding="UTF-8" standalone="no"?>
<!DOCTYPE svg PUBLIC "-//W3C//DTD SVG 1.1//EN"
 "http://www.w3.org/Graphics/SVG/1.1/DTD/svg11.dtd">
<!-- Generated by graphviz version 14.0.2 (20251019.1705)
 -->
<!-- Pages: 1 -->
<svg width="201pt" height="132pt"
 viewBox="0.00 0.00 201.00 132.00" xmlns="http://www.w3.org/2000/svg" xmlns:xlink="http://www.w3.org/1999/xlink">
<g id="graph0" class="graph" transform="scale(1 1) rotate(0) translate(4 128)">
<polygon fill="white" stroke="none" points="-4,4 -4,-128 197,-128 197,4 -4,4"/>
<g id="clust2" class="cluster">
<title>cluster_associated</title>
</g>
<!-- TimeThing -->
<g id="node1" class="node">
<title>TimeThing</title>
<g id="a_node1"><a xlink:href="../classes/itsTime__TimeThing.md" xlink:title="&lt;TABLE&gt;">
<polygon fill="lightgray" stroke="none" points="44.5,-25.88 44.5,-42.12 103.5,-42.12 103.5,-25.88 44.5,-25.88"/>
<text xml:space="preserve" text-anchor="start" x="45.5" y="-29.73" font-family="Arial" font-size="12.00">TimeThing</text>
<polygon fill="none" stroke="black" points="43.5,-24.88 43.5,-43.12 104.5,-43.12 104.5,-24.88 43.5,-24.88"/>
</a>
</g>
</g>
<!-- transportnetwork__ITSThing -->
<g id="node2" class="node">
<title>transportnetwork__ITSThing</title>
<polygon fill="lightgray" stroke="none" points="1,-97.88 1,-114.12 147,-114.12 147,-97.88 1,-97.88"/>
<text xml:space="preserve" text-anchor="start" x="2" y="-101.72" font-family="Arial" font-size="12.00">transportnetwork::ITSThing</text>
<polygon fill="none" stroke="black" points="0,-96.88 0,-115.12 148,-115.12 148,-96.88 0,-96.88"/>
</g>
<!-- TimeThing&#45;&gt;transportnetwork__ITSThing -->
<g id="edge1" class="edge">
<title>TimeThing&#45;&gt;transportnetwork__ITSThing</title>
<path fill="none" stroke="black" d="M74,-51.79C74,-59.25 74,-68.24 74,-76.69"/>
<polygon fill="none" stroke="black" points="70.5,-76.54 74,-86.54 77.5,-76.54 70.5,-76.54"/>
</g>
<!-- Invis -->
</g>
</svg>
