<?xml version="1.0" encoding="UTF-8" standalone="no"?>
<!DOCTYPE svg PUBLIC "-//W3C//DTD SVG 1.1//EN"
 "http://www.w3.org/Graphics/SVG/1.1/DTD/svg11.dtd">
<!-- Generated by graphviz version 14.0.2 (20251019.1705)
 -->
<!-- Pages: 1 -->
<svg width="208pt" height="132pt"
 viewBox="0.00 0.00 208.00 132.00" xmlns="http://www.w3.org/2000/svg" xmlns:xlink="http://www.w3.org/1999/xlink">
<g id="graph0" class="graph" transform="scale(1 1) rotate(0) translate(4 128)">
<polygon fill="white" stroke="none" points="-4,4 -4,-128 203.75,-128 203.75,4 -4,4"/>
<g id="clust2" class="cluster">
<title>cluster_associated</title>
</g>
<!-- TimePattern -->
<g id="node1" class="node">
<title>TimePattern</title>
<g id="a_node1"><a xlink:href="../classes/itsTime__TimePattern.md" xlink:title="&lt;TABLE&gt;">
<polygon fill="lightgray" stroke="none" points="44.5,-25.88 44.5,-42.12 111,-42.12 111,-25.88 44.5,-25.88"/>
<text xml:space="preserve" text-anchor="start" x="45.5" y="-29.73" font-family="Arial" font-size="12.00">TimePattern</text>
<polygon fill="none" stroke="black" points="43.5,-24.88 43.5,-43.12 112,-43.12 112,-24.88 43.5,-24.88"/>
</a>
</g>
</g>
<!-- transportnetwork__ITSPattern -->
<g id="node2" class="node">
<title>transportnetwork__ITSPattern</title>
<polygon fill="lightgray" stroke="none" points="1,-97.88 1,-114.12 154.5,-114.12 154.5,-97.88 1,-97.88"/>
<text xml:space="preserve" text-anchor="start" x="2" y="-101.72" font-family="Arial" font-size="12.00">transportnetwork::ITSPattern</text>
<polygon fill="none" stroke="black" points="0,-96.88 0,-115.12 155.5,-115.12 155.5,-96.88 0,-96.88"/>
</g>
<!-- TimePattern&#45;&gt;transportnetwork__ITSPattern -->
<g id="edge1" class="edge">
<title>TimePattern&#45;&gt;transportnetwork__ITSPattern</title>
<path fill="none" stroke="black" d="M77.75,-51.79C77.75,-59.25 77.75,-68.24 77.75,-76.69"/>
<polygon fill="none" stroke="black" points="74.25,-76.54 77.75,-86.54 81.25,-76.54 74.25,-76.54"/>
</g>
<!-- Invis -->
</g>
</svg>
