<?xml version="1.0" encoding="UTF-8" standalone="no"?>
<!DOCTYPE svg PUBLIC "-//W3C//DTD SVG 1.1//EN"
 "http://www.w3.org/Graphics/SVG/1.1/DTD/svg11.dtd">
<!-- Generated by graphviz version 13.1.0 (20250701.0955)
 -->
<!-- Pages: 1 -->
<svg width="352pt" height="233pt"
 viewBox="0.00 0.00 352.00 233.00" xmlns="http://www.w3.org/2000/svg" xmlns:xlink="http://www.w3.org/1999/xlink">
<g id="graph0" class="graph" transform="scale(1 1) rotate(0) translate(4 229.25)">
<polygon fill="white" stroke="none" points="-4,4 -4,-229.25 348.38,-229.25 348.38,4 -4,4"/>
<g id="clust2" class="cluster">
<title>cluster_associated</title>
</g>
<!-- TimeThing -->
<g id="node1" class="node">
<title>TimeThing</title>
<g id="a_node1"><a xlink:href="../classes/TimeThing.md" xlink:title="&lt;TABLE&gt;">
<polygon fill="lightgray" stroke="none" points="89.88,-199.12 89.88,-215.38 148.88,-215.38 148.88,-199.12 89.88,-199.12"/>
<text xml:space="preserve" text-anchor="start" x="90.88" y="-202.97" font-family="Arial" font-size="12.00">TimeThing</text>
<polygon fill="none" stroke="black" points="88.88,-198.12 88.88,-216.38 149.88,-216.38 149.88,-198.12 88.88,-198.12"/>
</a>
</g>
</g>
<!-- OverallPeriod -->
<g id="node2" class="node">
<title>OverallPeriod</title>
<g id="a_node2"><a xlink:href="../classes/OverallPeriod.md" xlink:title="&lt;TABLE&gt;">
<polygon fill="lightgray" stroke="none" points="1,-135 1,-151.25 237.75,-151.25 237.75,-135 1,-135"/>
<text xml:space="preserve" text-anchor="start" x="82.62" y="-138.85" font-family="Arial" font-size="12.00">OverallPeriod</text>
<text xml:space="preserve" text-anchor="start" x="2" y="-122.6" font-family="Arial" font-size="12.00">overallEndTime: dateTime «max 1, only»</text>
<text xml:space="preserve" text-anchor="start" x="2" y="-106.35" font-family="Arial" font-size="12.00">overallStartTime: dateTime «exactly 1, only»</text>
<polygon fill="none" stroke="black" points="0,-101.5 0,-152.25 238.75,-152.25 238.75,-101.5 0,-101.5"/>
</a>
</g>
</g>
<!-- OverallPeriod&#45;&gt;TimeThing -->
<g id="edge1" class="edge">
<title>OverallPeriod&#45;&gt;TimeThing</title>
<path fill="none" stroke="black" d="M119.38,-152.21C119.38,-160.47 119.38,-169.77 119.38,-178.29"/>
<polygon fill="none" stroke="black" points="115.88,-178.12 119.38,-188.12 122.88,-178.12 115.88,-178.12"/>
</g>
<!-- Invis -->
<!-- OverallPeriod&#45;&gt;Invis -->
<!-- Period -->
<g id="node4" class="node">
<title>Period</title>
<g id="a_node4"><a xlink:href="../classes/Period.md" xlink:title="&lt;TABLE&gt;">
<polygon fill="lightgray" stroke="none" points="282.75,-25.88 282.75,-42.12 320,-42.12 320,-25.88 282.75,-25.88"/>
<text xml:space="preserve" text-anchor="start" x="283.75" y="-29.73" font-family="Arial" font-size="12.00">Period</text>
<polygon fill="none" stroke="black" points="281.75,-24.88 281.75,-43.12 321,-43.12 321,-24.88 281.75,-24.88"/>
</a>
</g>
</g>
<!-- OverallPeriod&#45;&gt;Period -->
<g id="edge4" class="edge">
<title>OverallPeriod&#45;&gt;Period</title>
<path fill="none" stroke="black" d="M87.71,-101.72C78.16,-91.58 72.19,-79.87 80.62,-70 103.68,-43 206.56,-36.72 263.37,-35.33"/>
<polygon fill="black" stroke="black" points="263.31,-38.83 273.24,-35.13 263.17,-31.83 263.31,-38.83"/>
<text xml:space="preserve" text-anchor="middle" x="138" y="-73.05" font-family="Arial" font-size="11.00">exceptionPeriod «only» </text>
</g>
<!-- OverallPeriod&#45;&gt;Period -->
<g id="edge5" class="edge">
<title>OverallPeriod&#45;&gt;Period</title>
<path fill="none" stroke="black" d="M164.83,-101.53C175,-95.81 185.65,-89.6 195.38,-83.5 204.23,-77.95 205.44,-74.99 214.62,-70 230.28,-61.5 248.44,-53.86 264.1,-47.9"/>
<polygon fill="black" stroke="black" points="264.89,-51.34 273.05,-44.58 262.45,-44.77 264.89,-51.34"/>
<text xml:space="preserve" text-anchor="middle" x="260" y="-73.05" font-family="Arial" font-size="11.00">validPeriod «only» </text>
</g>
<!-- Invis&#45;&gt;Period -->
</g>
</svg>
