<?xml version="1.0" encoding="UTF-8" standalone="no"?>
<!DOCTYPE svg PUBLIC "-//W3C//DTD SVG 1.1//EN"
 "http://www.w3.org/Graphics/SVG/1.1/DTD/svg11.dtd">
<!-- Generated by graphviz version 14.1.3 (20260303.0454)
 -->
<!-- Pages: 1 -->
<svg width="741pt" height="663pt"
 viewBox="0.00 0.00 741.00 663.00" xmlns="http://www.w3.org/2000/svg" xmlns:xlink="http://www.w3.org/1999/xlink">
<g id="graph0" class="graph" transform="scale(1 1) rotate(0) translate(4 658.5)">
<polygon fill="white" stroke="none" points="-4,4 -4,-658.5 736.88,-658.5 736.88,4 -4,4"/>
<g id="clust3" class="cluster">
<title>cluster_associated</title>
</g>
<!-- ScheduleThing -->
<g id="node1" class="node">
<title>ScheduleThing</title>
<g id="a_node1"><a xlink:href="../ScheduleThing" xlink:title="&lt;TABLE&gt;">
<polygon fill="lightgray" stroke="none" points="340,-628.38 340,-644.62 423.75,-644.62 423.75,-628.38 340,-628.38"/>
<text xml:space="preserve" text-anchor="start" x="341" y="-632.38" font-family="Arial" font-size="12.00">ScheduleThing</text>
<polygon fill="none" stroke="black" points="339,-627.38 339,-645.62 424.75,-645.62 424.75,-627.38 339,-627.38"/>
</a>
</g>
</g>
<!-- Period -->
<g id="node2" class="node">
<title>Period</title>
<g id="a_node2"><a xlink:href="../Period" xlink:title="&lt;TABLE&gt;">
<polygon fill="lightgray" stroke="none" points="283.75,-564.25 283.75,-580.5 480,-580.5 480,-564.25 283.75,-564.25"/>
<text xml:space="preserve" text-anchor="start" x="364.25" y="-568.25" font-family="Arial" font-size="12.00">Period</text>
<text xml:space="preserve" text-anchor="start" x="284.75" y="-552" font-family="Arial" font-size="12.00">cdm1:hasName : rdf:langString [0..*]¹</text>
<text xml:space="preserve" text-anchor="start" x="284.75" y="-535.75" font-family="Arial" font-size="12.00">endOfPeriod : xsd:dateTime [0..1]</text>
<text xml:space="preserve" text-anchor="start" x="284.75" y="-519.5" font-family="Arial" font-size="12.00">startOfPeriod : xsd:dateTime [0..1]</text>
<polygon fill="none" stroke="black" points="282.75,-514.5 282.75,-581.5 481,-581.5 481,-514.5 282.75,-514.5"/>
</a>
</g>
</g>
<!-- Period&#45;&gt;ScheduleThing -->
<g id="edge1" class="edge">
<title>Period&#45;&gt;ScheduleThing</title>
<path fill="none" stroke="black" d="M381.88,-581.39C381.88,-589.95 381.88,-599.12 381.88,-607.43"/>
<polygon fill="none" stroke="black" points="378.38,-607.31 381.88,-617.31 385.38,-607.31 378.38,-607.31"/>
</g>
<!-- Invis -->
<!-- Period&#45;&gt;Invis -->
<!-- DayWeekMonth -->
<g id="node4" class="node">
<title>DayWeekMonth</title>
<g id="a_node4"><a xlink:href="../DayWeekMonth" xlink:title="&lt;TABLE&gt;">
<polygon fill="lightgray" stroke="none" points="90.12,-347.38 90.12,-363.62 177.62,-363.62 177.62,-347.38 90.12,-347.38"/>
<text xml:space="preserve" text-anchor="start" x="91.12" y="-351.38" font-family="Arial" font-size="12.00">DayWeekMonth</text>
<polygon fill="none" stroke="black" points="89.12,-346.38 89.12,-364.62 178.62,-364.62 178.62,-346.38 89.12,-346.38"/>
</a>
</g>
</g>
<!-- Period&#45;&gt;DayWeekMonth -->
<g id="edge7" class="edge">
<title>Period&#45;&gt;DayWeekMonth</title>
<path fill="none" stroke="black" d="M282.93,-531.34C249.07,-521.81 213.1,-506.52 186.62,-482 158.56,-456 144.89,-412.7 138.64,-384.38"/>
<polygon fill="black" stroke="black" points="142.1,-383.84 136.69,-374.73 135.24,-385.23 142.1,-383.84"/>
<polygon fill="white" stroke="none" points="186.62,-434.5 186.62,-477.5 367.88,-477.5 367.88,-434.5 186.62,-434.5"/>
<text xml:space="preserve" text-anchor="start" x="190.62" y="-463" font-family="Arial" font-size="11.00">hasRecurringDayWeekMonthPeriod</text>
<text xml:space="preserve" text-anchor="start" x="268.25" y="-441.5" font-family="Arial" font-size="11.00">0..1</text>
</g>
<!-- FuzzyTimePeriod -->
<g id="node5" class="node">
<title>FuzzyTimePeriod</title>
<g id="a_node5"><a xlink:href="../FuzzyTimePeriod" xlink:title="&lt;TABLE&gt;">
<polygon fill="lightgray" stroke="none" points="86,-228.88 86,-245.12 181.75,-245.12 181.75,-228.88 86,-228.88"/>
<text xml:space="preserve" text-anchor="start" x="87" y="-232.88" font-family="Arial" font-size="12.00">FuzzyTimePeriod</text>
<polygon fill="none" stroke="black" points="85,-227.88 85,-246.12 182.75,-246.12 182.75,-227.88 85,-227.88"/>
</a>
</g>
</g>
<!-- Period&#45;&gt;FuzzyTimePeriod -->
<g id="edge10" class="edge">
<title>Period&#45;&gt;FuzzyTimePeriod</title>
<path fill="none" stroke="black" d="M387.38,-514.7C389.7,-489.46 388.14,-455.28 367.88,-434.5 330.22,-395.89 293.11,-445.86 247.88,-416.5 233.14,-406.94 176.91,-312.23 149.32,-264.79"/>
<polygon fill="black" stroke="black" points="152.39,-263.1 144.34,-256.21 146.33,-266.61 152.39,-263.1"/>
<polygon fill="white" stroke="none" points="247.88,-395 247.88,-416.5 405.88,-416.5 405.88,-395 247.88,-395"/>
<text xml:space="preserve" text-anchor="start" x="251.88" y="-402" font-family="Arial" font-size="11.00">hasApplicableFuzzyTimePeriod</text>
</g>
<!-- SpecialDay -->
<g id="node6" class="node">
<title>SpecialDay</title>
<g id="a_node6"><a xlink:href="../SpecialDay" xlink:title="&lt;TABLE&gt;">
<polygon fill="lightgray" stroke="none" points="101.75,-155.88 101.75,-172.12 166,-172.12 166,-155.88 101.75,-155.88"/>
<text xml:space="preserve" text-anchor="start" x="102.75" y="-159.88" font-family="Arial" font-size="12.00">SpecialDay</text>
<polygon fill="none" stroke="black" points="100.75,-154.88 100.75,-173.12 167,-173.12 167,-154.88 100.75,-154.88"/>
</a>
</g>
</g>
<!-- Period&#45;&gt;SpecialDay -->
<g id="edge8" class="edge">
<title>Period&#45;&gt;SpecialDay</title>
<path fill="none" stroke="black" d="M402.88,-514.6C411.66,-498.05 419.88,-477.18 419.88,-457 419.88,-457 419.88,-457 419.88,-236 419.88,-186.81 258.51,-171.46 178.19,-166.86"/>
<polygon fill="black" stroke="black" points="178.65,-163.38 168.47,-166.34 178.27,-170.37 178.65,-163.38"/>
<polygon fill="white" stroke="none" points="419.88,-334 419.88,-377 547.12,-377 547.12,-334 419.88,-334"/>
<text xml:space="preserve" text-anchor="start" x="423.88" y="-362.5" font-family="Arial" font-size="11.00">hasRecurringSpecialDay</text>
<text xml:space="preserve" text-anchor="start" x="474.5" y="-341" font-family="Arial" font-size="11.00">0..1</text>
</g>
<!-- TimePeriodOfDay -->
<g id="node7" class="node">
<title>TimePeriodOfDay</title>
<g id="a_node7"><a xlink:href="../TimePeriodOfDay" xlink:title="&lt;TABLE&gt;">
<polygon fill="lightgray" stroke="none" points="84.25,-82.88 84.25,-99.12 181.5,-99.12 181.5,-82.88 84.25,-82.88"/>
<text xml:space="preserve" text-anchor="start" x="85.25" y="-86.88" font-family="Arial" font-size="12.00">TimePeriodOfDay</text>
<polygon fill="none" stroke="black" points="83.25,-81.88 83.25,-100.12 182.5,-100.12 182.5,-81.88 83.25,-81.88"/>
</a>
</g>
</g>
<!-- Period&#45;&gt;TimePeriodOfDay -->
<g id="edge9" class="edge">
<title>Period&#45;&gt;TimePeriodOfDay</title>
<path fill="none" stroke="black" d="M480.92,-536.92C528.31,-526.02 574.88,-503.49 574.88,-457 574.88,-457 574.88,-457 574.88,-163 574.88,-124.84 314.69,-103.44 193.57,-95.55"/>
<polygon fill="black" stroke="black" points="194.01,-92.07 183.8,-94.92 193.56,-99.05 194.01,-92.07"/>
<polygon fill="white" stroke="none" points="574.88,-273 574.88,-316 732.88,-316 732.88,-273 574.88,-273"/>
<text xml:space="preserve" text-anchor="start" x="578.88" y="-301.5" font-family="Arial" font-size="11.00">hasRecurringTimePeriodOfDay</text>
<text xml:space="preserve" text-anchor="start" x="644.88" y="-280" font-family="Arial" font-size="11.00">0..1</text>
</g>
<!-- Invis&#45;&gt;DayWeekMonth -->
<!-- DayWeekMonth&#45;&gt;FuzzyTimePeriod -->
<!-- FuzzyTimePeriod&#45;&gt;SpecialDay -->
<!-- SpecialDay&#45;&gt;TimePeriodOfDay -->
<!-- Period_uniqueLang_note -->
<g id="node8" class="node">
<title>Period_uniqueLang_note</title>
<text xml:space="preserve" text-anchor="start" x="2" y="-14.72" font-family="Arial" font-style="italic" font-size="12.00">¹ Limited to one rdf:langString value per language</text>
</g>
<!-- TimePeriodOfDay&#45;&gt;Period_uniqueLang_note -->
</g>
</svg>
