<?xml version="1.0" encoding="UTF-8" standalone="no"?>
<!DOCTYPE svg PUBLIC "-//W3C//DTD SVG 1.1//EN"
 "http://www.w3.org/Graphics/SVG/1.1/DTD/svg11.dtd">
<!-- Generated by graphviz version 13.1.0 (20250701.0955)
 -->
<!-- Pages: 1 -->
<svg width="473pt" height="408pt"
 viewBox="0.00 0.00 473.00 408.00" xmlns="http://www.w3.org/2000/svg" xmlns:xlink="http://www.w3.org/1999/xlink">
<g id="graph0" class="graph" transform="scale(1 1) rotate(0) translate(4 404)">
<polygon fill="white" stroke="none" points="-4,4 -4,-404 468.78,-404 468.78,4 -4,4"/>
<g id="clust2" class="cluster">
<title>cluster_associated</title>
</g>
<!-- TimeThing -->
<g id="node1" class="node">
<title>TimeThing</title>
<g id="a_node1"><a xlink:href="../classes/TimeThing.md" xlink:title="&lt;TABLE&gt;">
<polygon fill="lightgray" stroke="none" points="212.5,-373.88 212.5,-390.12 271.5,-390.12 271.5,-373.88 212.5,-373.88"/>
<text xml:space="preserve" text-anchor="start" x="213.5" y="-377.73" font-family="Arial" font-size="12.00">TimeThing</text>
<polygon fill="none" stroke="black" points="211.5,-372.88 211.5,-391.12 272.5,-391.12 272.5,-372.88 211.5,-372.88"/>
</a>
</g>
</g>
<!-- Period -->
<g id="node2" class="node">
<title>Period</title>
<g id="a_node2"><a xlink:href="../classes/Period.md" xlink:title="&lt;TABLE&gt;">
<polygon fill="lightgray" stroke="none" points="133,-309.75 133,-326 351,-326 351,-309.75 133,-309.75"/>
<text xml:space="preserve" text-anchor="start" x="224.38" y="-313.6" font-family="Arial" font-size="12.00">Period</text>
<text xml:space="preserve" text-anchor="start" x="134" y="-297.35" font-family="Arial" font-size="12.00">endOfPeriod: dateTime «max 1, only»</text>
<text xml:space="preserve" text-anchor="start" x="134" y="-281.1" font-family="Arial" font-size="12.00">genProp::hasName: string «max 1, only»</text>
<text xml:space="preserve" text-anchor="start" x="134" y="-264.85" font-family="Arial" font-size="12.00">startOfPeriod: dateTime «max 1, only»</text>
<polygon fill="none" stroke="black" points="132,-260 132,-327 352,-327 352,-260 132,-260"/>
</a>
</g>
</g>
<!-- Period&#45;&gt;TimeThing -->
<g id="edge1" class="edge">
<title>Period&#45;&gt;TimeThing</title>
<path fill="none" stroke="black" d="M242,-326.89C242,-335.45 242,-344.62 242,-352.93"/>
<polygon fill="none" stroke="black" points="238.5,-352.81 242,-362.81 245.5,-352.81 238.5,-352.81"/>
</g>
<!-- Invis -->
<!-- Period&#45;&gt;Invis -->
<!-- DaySelector -->
<g id="node4" class="node">
<title>DaySelector</title>
<g id="a_node4"><a xlink:href="../classes/DaySelector.md" xlink:title="&lt;TABLE&gt;">
<polygon fill="lightgray" stroke="none" points="40,-184.38 40,-200.62 108,-200.62 108,-184.38 40,-184.38"/>
<text xml:space="preserve" text-anchor="start" x="41" y="-188.22" font-family="Arial" font-size="12.00">DaySelector</text>
<polygon fill="none" stroke="black" points="39,-183.38 39,-201.62 109,-201.62 109,-183.38 39,-183.38"/>
</a>
</g>
</g>
<!-- Period&#45;&gt;DaySelector -->
<g id="edge6" class="edge">
<title>Period&#45;&gt;DaySelector</title>
<path fill="none" stroke="black" d="M132.41,-260.76C104.67,-252.26 81.98,-244.68 79.75,-242 74.98,-236.27 72.81,-228.75 72.02,-221.35"/>
<polygon fill="black" stroke="black" points="75.52,-221.51 71.76,-211.61 68.53,-221.69 75.52,-221.51"/>
<text xml:space="preserve" text-anchor="middle" x="134.88" y="-231.55" font-family="Arial" font-size="11.00">applicableDays «only» </text>
</g>
<!-- SpecialDay -->
<g id="node5" class="node">
<title>SpecialDay</title>
<g id="a_node5"><a xlink:href="../classes/SpecialDay.md" xlink:title="&lt;TABLE&gt;">
<polygon fill="lightgray" stroke="none" points="41.88,-98.88 41.88,-115.12 106.12,-115.12 106.12,-98.88 41.88,-98.88"/>
<text xml:space="preserve" text-anchor="start" x="42.88" y="-102.72" font-family="Arial" font-size="12.00">SpecialDay</text>
<polygon fill="none" stroke="black" points="40.88,-97.88 40.88,-116.12 107.12,-116.12 107.12,-97.88 40.88,-97.88"/>
</a>
</g>
</g>
<!-- Period&#45;&gt;SpecialDay -->
<g id="edge7" class="edge">
<title>Period&#45;&gt;SpecialDay</title>
<path fill="none" stroke="black" d="M216.6,-260.16C208.3,-249.88 198.92,-238.58 190,-228.5 159.71,-194.26 122.8,-156.56 98.87,-132.61"/>
<polygon fill="black" stroke="black" points="101.61,-130.39 92.05,-125.8 96.66,-135.34 101.61,-130.39"/>
<text xml:space="preserve" text-anchor="middle" x="240.55" y="-188.8" font-family="Arial" font-size="11.00">recurringSpecialDay «only» </text>
</g>
<!-- TimePeriodOfDay -->
<g id="node6" class="node">
<title>TimePeriodOfDay</title>
<g id="a_node6"><a xlink:href="../classes/TimePeriodOfDay.md" xlink:title="&lt;TABLE&gt;">
<polygon fill="lightgray" stroke="none" points="17.38,-25.88 17.38,-42.12 114.62,-42.12 114.62,-25.88 17.38,-25.88"/>
<text xml:space="preserve" text-anchor="start" x="18.38" y="-29.73" font-family="Arial" font-size="12.00">TimePeriodOfDay</text>
<polygon fill="none" stroke="black" points="16.38,-24.88 16.38,-43.12 115.62,-43.12 115.62,-24.88 16.38,-24.88"/>
</a>
</g>
</g>
<!-- Period&#45;&gt;TimePeriodOfDay -->
<g id="edge8" class="edge">
<title>Period&#45;&gt;TimePeriodOfDay</title>
<path fill="none" stroke="black" d="M281.92,-260.03C305.95,-236.37 328.91,-203.52 312,-174.5 272.22,-106.21 185.19,-68.64 126.07,-50.16"/>
<polygon fill="black" stroke="black" points="127.41,-46.91 116.82,-47.37 125.38,-53.61 127.41,-46.91"/>
<text xml:space="preserve" text-anchor="middle" x="381.91" y="-146.05" font-family="Arial" font-size="11.00">recurringTimePeriodOfDay «only» </text>
</g>
<!-- Invis&#45;&gt;DaySelector -->
<!-- DaySelector&#45;&gt;SpecialDay -->
<!-- SpecialDay&#45;&gt;TimePeriodOfDay -->
</g>
</svg>
