<?xml version="1.0" encoding="UTF-8" standalone="no"?>
<!DOCTYPE svg PUBLIC "-//W3C//DTD SVG 1.1//EN"
 "http://www.w3.org/Graphics/SVG/1.1/DTD/svg11.dtd">
<!-- Generated by graphviz version 14.1.3 (20260303.0454)
 -->
<!-- Pages: 1 -->
<svg width="176pt" height="132pt"
 viewBox="0.00 0.00 176.00 132.00" xmlns="http://www.w3.org/2000/svg" xmlns:xlink="http://www.w3.org/1999/xlink">
<g id="graph0" class="graph" transform="scale(1 1) rotate(0) translate(4 128)">
<polygon fill="white" stroke="none" points="-4,4 -4,-128 171.5,-128 171.5,4 -4,4"/>
<g id="clust3" class="cluster">
<title>cluster_associated</title>
</g>
<!-- SpecialDay -->
<g id="node1" class="node">
<title>SpecialDay</title>
<g id="a_node1"><a xlink:href="../SpecialDay" xlink:title="&lt;TABLE&gt;">
<polygon fill="lightgray" stroke="none" points="7.38,-97.88 7.38,-114.12 71.62,-114.12 71.62,-97.88 7.38,-97.88"/>
<text xml:space="preserve" text-anchor="start" x="8.38" y="-101.88" font-family="Arial" font-size="12.00">SpecialDay</text>
<polygon fill="none" stroke="black" points="6.38,-96.88 6.38,-115.12 72.62,-115.12 72.62,-96.88 6.38,-96.88"/>
</a>
</g>
</g>
<!-- PublicHoliday -->
<g id="node2" class="node">
<title>PublicHoliday</title>
<g id="a_node2"><a xlink:href="../PublicHoliday" xlink:title="&lt;TABLE&gt;">
<polygon fill="lightgray" stroke="none" points="1,-25.88 1,-42.12 78,-42.12 78,-25.88 1,-25.88"/>
<text xml:space="preserve" text-anchor="start" x="2" y="-29.88" font-family="Arial" font-size="12.00">PublicHoliday</text>
<polygon fill="none" stroke="black" points="0,-24.88 0,-43.12 79,-43.12 79,-24.88 0,-24.88"/>
</a>
</g>
</g>
<!-- PublicHoliday&#45;&gt;SpecialDay -->
<g id="edge1" class="edge">
<title>PublicHoliday&#45;&gt;SpecialDay</title>
<path fill="none" stroke="black" d="M39.5,-51.79C39.5,-59.25 39.5,-68.24 39.5,-76.69"/>
<polygon fill="none" stroke="black" points="36,-76.54 39.5,-86.54 43,-76.54 36,-76.54"/>
</g>
<!-- Invis -->
</g>
</svg>
