<?xml version="1.0" encoding="UTF-8" standalone="no"?>
<!DOCTYPE svg PUBLIC "-//W3C//DTD SVG 1.1//EN"
 "http://www.w3.org/Graphics/SVG/1.1/DTD/svg11.dtd">
<!-- Generated by graphviz version 14.1.3 (20260303.0454)
 -->
<!-- Pages: 1 -->
<svg width="290pt" height="132pt"
 viewBox="0.00 0.00 290.00 132.00" xmlns="http://www.w3.org/2000/svg" xmlns:xlink="http://www.w3.org/1999/xlink">
<g id="graph0" class="graph" transform="scale(1 1) rotate(0) translate(4 128)">
<polygon fill="white" stroke="none" points="-4,4 -4,-128 286.25,-128 286.25,4 -4,4"/>
<g id="clust3" class="cluster">
<title>cluster_associated</title>
</g>
<!-- SpecialDay -->
<g id="node1" class="node">
<title>SpecialDay</title>
<g id="a_node1"><a xlink:href="../SpecialDay" xlink:title="&lt;TABLE&gt;">
<polygon fill="lightgray" stroke="none" points="65.12,-97.88 65.12,-114.12 129.38,-114.12 129.38,-97.88 65.12,-97.88"/>
<text xml:space="preserve" text-anchor="start" x="66.12" y="-101.88" font-family="Arial" font-size="12.00">SpecialDay</text>
<polygon fill="none" stroke="black" points="64.12,-96.88 64.12,-115.12 130.38,-115.12 130.38,-96.88 64.12,-96.88"/>
</a>
</g>
</g>
<!-- PublicHoliday -->
<g id="node2" class="node">
<title>PublicHoliday</title>
<g id="a_node2"><a xlink:href="../PublicHoliday" xlink:title="&lt;TABLE&gt;">
<polygon fill="lightgray" stroke="none" points="1,-34 1,-50.25 193.5,-50.25 193.5,-34 1,-34"/>
<text xml:space="preserve" text-anchor="start" x="59.75" y="-38" font-family="Arial" font-size="12.00">PublicHoliday</text>
<text xml:space="preserve" text-anchor="start" x="2" y="-21.75" font-family="Arial" font-size="12.00">cdm1:hasName : rdf:langString [1..*]</text>
<polygon fill="none" stroke="black" points="0,-16.75 0,-51.25 194.5,-51.25 194.5,-16.75 0,-16.75"/>
</a>
</g>
</g>
<!-- PublicHoliday&#45;&gt;SpecialDay -->
<g id="edge1" class="edge">
<title>PublicHoliday&#45;&gt;SpecialDay</title>
<path fill="none" stroke="black" d="M97.25,-51.79C97.25,-59.25 97.25,-68.24 97.25,-76.69"/>
<polygon fill="none" stroke="black" points="93.75,-76.54 97.25,-86.54 100.75,-76.54 93.75,-76.54"/>
</g>
<!-- Invis -->
</g>
</svg>
