<?xml version="1.0" encoding="UTF-8" standalone="no"?>
<!DOCTYPE svg PUBLIC "-//W3C//DTD SVG 1.1//EN"
 "http://www.w3.org/Graphics/SVG/1.1/DTD/svg11.dtd">
<!-- Generated by graphviz version 14.1.3 (20260303.0454)
 -->
<!-- Pages: 1 -->
<svg width="182pt" height="132pt"
 viewBox="0.00 0.00 182.00 132.00" xmlns="http://www.w3.org/2000/svg" xmlns:xlink="http://www.w3.org/1999/xlink">
<g id="graph0" class="graph" transform="scale(1 1) rotate(0) translate(4 128)">
<polygon fill="white" stroke="none" points="-4,4 -4,-128 177.88,-128 177.88,4 -4,4"/>
<g id="clust3" class="cluster">
<title>cluster_associated</title>
</g>
<!-- TimeThing -->
<g id="node1" class="node">
<title>TimeThing</title>
<g id="a_node1"><a xlink:href="../TimeThing" xlink:title="&lt;TABLE&gt;">
<polygon fill="lightgray" stroke="none" points="13.38,-97.88 13.38,-114.12 72.38,-114.12 72.38,-97.88 13.38,-97.88"/>
<text xml:space="preserve" text-anchor="start" x="14.38" y="-101.88" font-family="Arial" font-size="12.00">TimeThing</text>
<polygon fill="none" stroke="black" points="12.38,-96.88 12.38,-115.12 73.38,-115.12 73.38,-96.88 12.38,-96.88"/>
</a>
</g>
</g>
<!-- ScheduleThing -->
<g id="node2" class="node">
<title>ScheduleThing</title>
<g id="a_node2"><a xlink:href="../ScheduleThing" xlink:title="&lt;TABLE&gt;">
<polygon fill="lightgray" stroke="none" points="1,-25.88 1,-42.12 84.75,-42.12 84.75,-25.88 1,-25.88"/>
<text xml:space="preserve" text-anchor="start" x="2" y="-29.88" font-family="Arial" font-size="12.00">ScheduleThing</text>
<polygon fill="none" stroke="black" points="0,-24.88 0,-43.12 85.75,-43.12 85.75,-24.88 0,-24.88"/>
</a>
</g>
</g>
<!-- ScheduleThing&#45;&gt;TimeThing -->
<g id="edge1" class="edge">
<title>ScheduleThing&#45;&gt;TimeThing</title>
<path fill="none" stroke="black" d="M42.88,-51.79C42.88,-59.25 42.88,-68.24 42.88,-76.69"/>
<polygon fill="none" stroke="black" points="39.38,-76.54 42.88,-86.54 46.38,-76.54 39.38,-76.54"/>
</g>
<!-- Invis -->
</g>
</svg>
