<?xml version="1.0" encoding="UTF-8" standalone="no"?>
<!DOCTYPE svg PUBLIC "-//W3C//DTD SVG 1.1//EN"
 "http://www.w3.org/Graphics/SVG/1.1/DTD/svg11.dtd">
<!-- Generated by graphviz version 14.1.3 (20260303.0454)
 -->
<!-- Pages: 1 -->
<svg width="421pt" height="451pt"
 viewBox="0.00 0.00 421.00 451.00" xmlns="http://www.w3.org/2000/svg" xmlns:xlink="http://www.w3.org/1999/xlink">
<g id="graph0" class="graph" transform="scale(1 1) rotate(0) translate(4 447)">
<polygon fill="white" stroke="none" points="-4,4 -4,-447 417.25,-447 417.25,4 -4,4"/>
<g id="clust3" class="cluster">
<title>cluster_associated</title>
</g>
<!-- ScheduleThing -->
<g id="node1" class="node">
<title>ScheduleThing</title>
<g id="a_node1"><a xlink:href="../ScheduleThing" xlink:title="&lt;TABLE&gt;">
<polygon fill="lightgray" stroke="none" points="113.12,-416.88 113.12,-433.12 196.88,-433.12 196.88,-416.88 113.12,-416.88"/>
<text xml:space="preserve" text-anchor="start" x="114.12" y="-420.88" font-family="Arial" font-size="12.00">ScheduleThing</text>
<polygon fill="none" stroke="black" points="112.12,-415.88 112.12,-434.12 197.88,-434.12 197.88,-415.88 112.12,-415.88"/>
</a>
</g>
</g>
<!-- SpecialDay -->
<g id="node2" class="node">
<title>SpecialDay</title>
<g id="a_node2"><a xlink:href="../SpecialDay" xlink:title="&lt;TABLE&gt;">
<polygon fill="lightgray" stroke="none" points="32.12,-352 32.12,-368.25 277.88,-368.25 277.88,-352 32.12,-352"/>
<text xml:space="preserve" text-anchor="start" x="123.88" y="-356" font-family="Arial" font-size="12.00">SpecialDay</text>
<text xml:space="preserve" text-anchor="start" x="33.12" y="-339.75" font-family="Arial" font-size="12.00">intersectWithApplicableDays : xsd:boolean [1]</text>
<polygon fill="none" stroke="black" points="31.12,-334.75 31.12,-369.25 278.88,-369.25 278.88,-334.75 31.12,-334.75"/>
</a>
</g>
</g>
<!-- SpecialDay&#45;&gt;ScheduleThing -->
<g id="edge1" class="edge">
<title>SpecialDay&#45;&gt;ScheduleThing</title>
<path fill="none" stroke="black" d="M155,-369.71C155,-377.47 155,-386.92 155,-395.74"/>
<polygon fill="none" stroke="black" points="151.5,-395.66 155,-405.66 158.5,-395.66 151.5,-395.66"/>
</g>
<!-- Invis -->
<!-- SpecialDay&#45;&gt;Invis -->
<!-- cdm2_NamedArea -->
<g id="node4" class="node">
<title>cdm2_NamedArea</title>
<g id="a_node4"><a xlink:href="https://w3id.org/citydata/part2/v1/NamedArea" xlink:title="&lt;TABLE&gt;">
<polygon fill="lightgray" stroke="none" points="33.62,-171.88 33.62,-188.12 132.38,-188.12 132.38,-171.88 33.62,-171.88"/>
<text xml:space="preserve" text-anchor="start" x="34.62" y="-175.88" font-family="Arial" font-size="12.00">cdm2:NamedArea</text>
<polygon fill="none" stroke="black" points="32.62,-170.88 32.62,-189.12 133.38,-189.12 133.38,-170.88 32.62,-170.88"/>
</a>
</g>
</g>
<!-- SpecialDay&#45;&gt;cdm2_NamedArea -->
<g id="edge8" class="edge">
<title>SpecialDay&#45;&gt;cdm2_NamedArea</title>
<path fill="none" stroke="black" d="M139.66,-334.11C132.78,-325.82 125.05,-315.4 119.75,-305 103.92,-273.91 93.77,-234.87 88.23,-209"/>
<polygon fill="black" stroke="black" points="91.67,-208.36 86.25,-199.26 84.81,-209.76 91.67,-208.36"/>
<text xml:space="preserve" text-anchor="middle" x="155.38" y="-282.05" font-family="Arial" font-size="11.00">applicableArea</text>
<text xml:space="preserve" text-anchor="middle" x="155.38" y="-268.55" font-family="Arial" font-size="11.00">0..1</text>
</g>
<!-- PublicEventCode -->
<g id="node5" class="node">
<title>PublicEventCode</title>
<g id="a_node5"><a xlink:href="../PublicEventCode" xlink:title="&lt;TABLE&gt;">
<polygon fill="lightgray" stroke="none" points="35.12,-98.88 35.12,-115.12 130.88,-115.12 130.88,-98.88 35.12,-98.88"/>
<text xml:space="preserve" text-anchor="start" x="36.12" y="-102.88" font-family="Arial" font-size="12.00">PublicEventCode</text>
<polygon fill="none" stroke="black" points="34.12,-97.88 34.12,-116.12 131.88,-116.12 131.88,-97.88 34.12,-97.88"/>
</a>
</g>
</g>
<!-- SpecialDay&#45;&gt;PublicEventCode -->
<g id="edge7" class="edge">
<title>SpecialDay&#45;&gt;PublicEventCode</title>
<path fill="none" stroke="black" d="M172.46,-334.33C179.68,-326.25 187.23,-315.93 191,-305 197.37,-286.51 195.45,-280.04 191,-261 179.82,-213.2 171.5,-201.24 142,-162 133.95,-151.29 123.59,-140.99 113.8,-132.3"/>
<polygon fill="black" stroke="black" points="116.08,-129.64 106.21,-125.8 111.53,-134.96 116.08,-129.64"/>
<text xml:space="preserve" text-anchor="middle" x="234.96" y="-232.55" font-family="Arial" font-size="11.00">hasPublicEventType</text>
<text xml:space="preserve" text-anchor="middle" x="234.96" y="-219.05" font-family="Arial" font-size="11.00">0..1</text>
</g>
<!-- SpecialDayTypeCode -->
<g id="node6" class="node">
<title>SpecialDayTypeCode</title>
<g id="a_node6"><a xlink:href="../SpecialDayTypeCode" xlink:title="&lt;TABLE&gt;">
<polygon fill="lightgray" stroke="none" points="17.12,-25.88 17.12,-42.12 136.88,-42.12 136.88,-25.88 17.12,-25.88"/>
<text xml:space="preserve" text-anchor="start" x="18.12" y="-29.88" font-family="Arial" font-size="12.00">SpecialDayTypeCode</text>
<polygon fill="none" stroke="black" points="16.12,-24.88 16.12,-43.12 137.88,-43.12 137.88,-24.88 16.12,-24.88"/>
</a>
</g>
</g>
<!-- SpecialDay&#45;&gt;SpecialDayTypeCode -->
<g id="edge6" class="edge">
<title>SpecialDay&#45;&gt;SpecialDayTypeCode</title>
<path fill="none" stroke="black" d="M274.32,-334.14C299.17,-323.66 318,-306.85 318,-280 318,-280 318,-280 318,-106 318,-70.39 219.98,-51.33 148.96,-42.18"/>
<polygon fill="black" stroke="black" points="149.67,-38.74 139.32,-40.99 148.81,-45.69 149.67,-38.74"/>
<text xml:space="preserve" text-anchor="middle" x="365.62" y="-183.05" font-family="Arial" font-size="11.00">hasSpecialDayType</text>
<text xml:space="preserve" text-anchor="middle" x="365.62" y="-169.55" font-family="Arial" font-size="11.00">1</text>
</g>
<!-- Invis&#45;&gt;cdm2_NamedArea -->
<!-- cdm2_NamedArea&#45;&gt;PublicEventCode -->
<!-- PublicEventCode&#45;&gt;SpecialDayTypeCode -->
</g>
</svg>
