<?xml version="1.0" encoding="UTF-8" standalone="no"?>
<!DOCTYPE svg PUBLIC "-//W3C//DTD SVG 1.1//EN"
 "http://www.w3.org/Graphics/SVG/1.1/DTD/svg11.dtd">
<!-- Generated by graphviz version 13.1.0 (20250701.0955)
 -->
<!-- Pages: 1 -->
<svg width="413pt" height="219pt"
 viewBox="0.00 0.00 413.00 219.00" xmlns="http://www.w3.org/2000/svg" xmlns:xlink="http://www.w3.org/1999/xlink">
<g id="graph0" class="graph" transform="scale(1 1) rotate(0) translate(4 214.5)">
<polygon fill="white" stroke="none" points="-4,4 -4,-214.5 408.75,-214.5 408.75,4 -4,4"/>
<g id="clust2" class="cluster">
<title>cluster_associated</title>
</g>
<!-- TimeThing -->
<g id="node1" class="node">
<title>TimeThing</title>
<g id="a_node1"><a xlink:href="../classes/TimeThing.md" xlink:title="&lt;TABLE&gt;">
<polygon fill="lightgray" stroke="none" points="120.25,-184.38 120.25,-200.62 179.25,-200.62 179.25,-184.38 120.25,-184.38"/>
<text xml:space="preserve" text-anchor="start" x="121.25" y="-188.22" font-family="Arial" font-size="12.00">TimeThing</text>
<polygon fill="none" stroke="black" points="119.25,-183.38 119.25,-201.62 180.25,-201.62 180.25,-183.38 119.25,-183.38"/>
</a>
</g>
</g>
<!-- SpecialDay -->
<g id="node2" class="node">
<title>SpecialDay</title>
<g id="a_node2"><a xlink:href="../classes/SpecialDay.md" xlink:title="&lt;TABLE&gt;">
<polygon fill="lightgray" stroke="none" points="1,-119.5 1,-135.75 298.5,-135.75 298.5,-119.5 1,-119.5"/>
<text xml:space="preserve" text-anchor="start" x="118.62" y="-123.35" font-family="Arial" font-size="12.00">SpecialDay</text>
<text xml:space="preserve" text-anchor="start" x="2" y="-107.1" font-family="Arial" font-size="12.00">intersectWithApplicableDays: boolean «exactly 1, only»</text>
<polygon fill="none" stroke="black" points="0,-102.25 0,-136.75 299.5,-136.75 299.5,-102.25 0,-102.25"/>
</a>
</g>
</g>
<!-- SpecialDay&#45;&gt;TimeThing -->
<g id="edge1" class="edge">
<title>SpecialDay&#45;&gt;TimeThing</title>
<path fill="none" stroke="black" d="M149.75,-137.21C149.75,-144.97 149.75,-154.42 149.75,-163.24"/>
<polygon fill="none" stroke="black" points="146.25,-163.16 149.75,-173.16 153.25,-163.16 146.25,-163.16"/>
</g>
<!-- Invis -->
<!-- SpecialDay&#45;&gt;Invis -->
<!-- code__Code -->
<g id="node4" class="node">
<title>code__Code</title>
<g id="a_node4"><a xlink:href="../classes/code::Code.md" xlink:title="&lt;TABLE&gt;">
<polygon fill="lightgray" stroke="none" points="324,-25.88 324,-42.12 387.5,-42.12 387.5,-25.88 324,-25.88"/>
<text xml:space="preserve" text-anchor="start" x="325" y="-29.73" font-family="Arial" font-size="12.00">code::Code</text>
<polygon fill="none" stroke="black" points="323,-24.88 323,-43.12 388.5,-43.12 388.5,-24.88 323,-24.88"/>
</a>
</g>
</g>
<!-- SpecialDay&#45;&gt;code__Code -->
<g id="edge4" class="edge">
<title>SpecialDay&#45;&gt;code__Code</title>
<path fill="none" stroke="black" d="M75.61,-101.59C57.03,-93.98 45.41,-83.59 57.5,-70 74.08,-51.36 232.63,-41.03 311.56,-37"/>
<polygon fill="black" stroke="black" points="311.73,-40.5 321.54,-36.5 311.38,-33.5 311.73,-40.5"/>
<text xml:space="preserve" text-anchor="middle" x="121.62" y="-73.05" font-family="Arial" font-size="11.00">publicEvent «max 1, only» </text>
</g>
<!-- SpecialDay&#45;&gt;code__Code -->
<g id="edge5" class="edge">
<title>SpecialDay&#45;&gt;code__Code</title>
<path fill="none" stroke="black" d="M166.83,-101.69C179.61,-89.43 196.26,-74.25 204.5,-70 238.17,-52.64 280.45,-43.79 311.75,-39.34"/>
<polygon fill="black" stroke="black" points="312.21,-42.81 321.66,-38.04 311.29,-35.87 312.21,-42.81"/>
<text xml:space="preserve" text-anchor="middle" x="285.12" y="-73.05" font-family="Arial" font-size="11.00">specialDayType «exactly 1, only» </text>
</g>
<!-- Invis&#45;&gt;code__Code -->
</g>
</svg>
