<?xml version="1.0" encoding="UTF-8" standalone="no"?>
<!DOCTYPE svg PUBLIC "-//W3C//DTD SVG 1.1//EN"
 "http://www.w3.org/Graphics/SVG/1.1/DTD/svg11.dtd">
<!-- Generated by graphviz version 14.1.3 (20260303.0454)
 -->
<!-- Pages: 1 -->
<svg width="264pt" height="286pt"
 viewBox="0.00 0.00 264.00 286.00" xmlns="http://www.w3.org/2000/svg" xmlns:xlink="http://www.w3.org/1999/xlink">
<g id="graph0" class="graph" transform="scale(1 1) rotate(0) translate(4 282)">
<polygon fill="white" stroke="none" points="-4,4 -4,-282 259.5,-282 259.5,4 -4,4"/>
<g id="clust3" class="cluster">
<title>cluster_associated</title>
</g>
<!-- ScheduleThing -->
<g id="node1" class="node">
<title>ScheduleThing</title>
<g id="a_node1"><a xlink:href="../ScheduleThing" xlink:title="&lt;TABLE&gt;">
<polygon fill="lightgray" stroke="none" points="64.12,-251.88 64.12,-268.12 147.88,-268.12 147.88,-251.88 64.12,-251.88"/>
<text xml:space="preserve" text-anchor="start" x="65.12" y="-255.88" font-family="Arial" font-size="12.00">ScheduleThing</text>
<polygon fill="none" stroke="black" points="63.12,-250.88 63.12,-269.12 148.88,-269.12 148.88,-250.88 63.12,-250.88"/>
</a>
</g>
</g>
<!-- TimePeriodOfDay -->
<g id="node2" class="node">
<title>TimePeriodOfDay</title>
<g id="a_node2"><a xlink:href="../TimePeriodOfDay" xlink:title="&lt;TABLE&gt;">
<polygon fill="lightgray" stroke="none" points="57.38,-178.88 57.38,-195.12 154.62,-195.12 154.62,-178.88 57.38,-178.88"/>
<text xml:space="preserve" text-anchor="start" x="58.38" y="-182.88" font-family="Arial" font-size="12.00">TimePeriodOfDay</text>
<polygon fill="none" stroke="black" points="56.38,-177.88 56.38,-196.12 155.62,-196.12 155.62,-177.88 56.38,-177.88"/>
</a>
</g>
</g>
<!-- TimePeriodOfDay&#45;&gt;ScheduleThing -->
<g id="edge1" class="edge">
<title>TimePeriodOfDay&#45;&gt;ScheduleThing</title>
<path fill="none" stroke="black" d="M106,-204.71C106,-212.47 106,-221.92 106,-230.74"/>
<polygon fill="none" stroke="black" points="102.5,-230.66 106,-240.66 109.5,-230.66 102.5,-230.66"/>
</g>
<!-- Invis -->
<!-- TimePeriodOfDay&#45;&gt;Invis -->
<!-- TimeOfDay -->
<g id="node4" class="node">
<title>TimeOfDay</title>
<g id="a_node4"><a xlink:href="../TimeOfDay" xlink:title="&lt;TABLE&gt;">
<polygon fill="lightgray" stroke="none" points="17,-25.88 17,-42.12 79,-42.12 79,-25.88 17,-25.88"/>
<text xml:space="preserve" text-anchor="start" x="18" y="-29.88" font-family="Arial" font-size="12.00">TimeOfDay</text>
<polygon fill="none" stroke="black" points="16,-24.88 16,-43.12 80,-43.12 80,-24.88 16,-24.88"/>
</a>
</g>
</g>
<!-- TimePeriodOfDay&#45;&gt;TimeOfDay -->
<g id="edge4" class="edge">
<title>TimePeriodOfDay&#45;&gt;TimeOfDay</title>
<path fill="none" stroke="black" d="M102.64,-169.1C98.42,-149.4 90.34,-116.09 79,-89 75.14,-79.78 70.03,-70.18 65.07,-61.68"/>
<polygon fill="black" stroke="black" points="68.14,-59.99 59.98,-53.24 62.15,-63.61 68.14,-59.99"/>
<polygon fill="white" stroke="none" points="94.47,-89 94.47,-132 170.72,-132 170.72,-89 94.47,-89"/>
<text xml:space="preserve" text-anchor="start" x="98.47" y="-117.5" font-family="Arial" font-size="11.00">dailyStartTime</text>
<text xml:space="preserve" text-anchor="start" x="129.59" y="-96" font-family="Arial" font-size="11.00">1</text>
</g>
<!-- TimePeriodOfDay&#45;&gt;TimeOfDay -->
<g id="edge5" class="edge">
<title>TimePeriodOfDay&#45;&gt;TimeOfDay</title>
<path fill="none" stroke="black" d="M142.32,-169.02C155.05,-161.07 167.93,-150.27 175,-136.5 184.64,-117.72 186.65,-106.61 175,-89 156.45,-60.95 120.06,-47.43 90.97,-40.93"/>
<polygon fill="black" stroke="black" points="91.81,-37.53 81.31,-39 90.43,-44.39 91.81,-37.53"/>
<polygon fill="white" stroke="none" points="183,-89 183,-132 255.5,-132 255.5,-89 183,-89"/>
<text xml:space="preserve" text-anchor="start" x="187" y="-117.5" font-family="Arial" font-size="11.00">dailyEndTime</text>
<text xml:space="preserve" text-anchor="start" x="216.25" y="-96" font-family="Arial" font-size="11.00">1</text>
</g>
<!-- Invis&#45;&gt;TimeOfDay -->
</g>
</svg>
