<?xml version="1.0" encoding="UTF-8" standalone="no"?>
<!DOCTYPE svg PUBLIC "-//W3C//DTD SVG 1.1//EN"
 "http://www.w3.org/Graphics/SVG/1.1/DTD/svg11.dtd">
<!-- Generated by graphviz version 14.1.3 (20260303.0454)
 -->
<!-- Pages: 1 -->
<svg width="175pt" height="132pt"
 viewBox="0.00 0.00 175.00 132.00" xmlns="http://www.w3.org/2000/svg" xmlns:xlink="http://www.w3.org/1999/xlink">
<g id="graph0" class="graph" transform="scale(1 1) rotate(0) translate(4 128)">
<polygon fill="white" stroke="none" points="-4,4 -4,-128 170.75,-128 170.75,4 -4,4"/>
<g id="clust3" class="cluster">
<title>cluster_associated</title>
</g>
<!-- its&#45;core_ITSThing -->
<g id="node1" class="node">
<title>its&#45;core_ITSThing</title>
<g id="a_node1"><a xlink:href="https://w3id.org/itsdata/core/v1/ITSThing" xlink:title="&lt;TABLE&gt;">
<polygon fill="lightgray" stroke="none" points="1,-97.88 1,-114.12 94.5,-114.12 94.5,-97.88 1,-97.88"/>
<text xml:space="preserve" text-anchor="start" x="2" y="-101.88" font-family="Arial" font-size="12.00">its&#45;core:ITSThing</text>
<polygon fill="none" stroke="black" points="0,-96.88 0,-115.12 95.5,-115.12 95.5,-96.88 0,-96.88"/>
</a>
</g>
</g>
<!-- TimeThing -->
<g id="node2" class="node">
<title>TimeThing</title>
<g id="a_node2"><a xlink:href="../TimeThing" xlink:title="&lt;TABLE&gt;">
<polygon fill="lightgray" stroke="none" points="18.25,-25.88 18.25,-42.12 77.25,-42.12 77.25,-25.88 18.25,-25.88"/>
<text xml:space="preserve" text-anchor="start" x="19.25" y="-29.88" font-family="Arial" font-size="12.00">TimeThing</text>
<polygon fill="none" stroke="black" points="17.25,-24.88 17.25,-43.12 78.25,-43.12 78.25,-24.88 17.25,-24.88"/>
</a>
</g>
</g>
<!-- TimeThing&#45;&gt;its&#45;core_ITSThing -->
<g id="edge1" class="edge">
<title>TimeThing&#45;&gt;its&#45;core_ITSThing</title>
<path fill="none" stroke="black" d="M47.75,-51.79C47.75,-59.25 47.75,-68.24 47.75,-76.69"/>
<polygon fill="none" stroke="black" points="44.25,-76.54 47.75,-86.54 51.25,-76.54 44.25,-76.54"/>
</g>
<!-- Invis -->
</g>
</svg>
