<?xml version="1.0" encoding="UTF-8" standalone="no"?>
<!DOCTYPE svg PUBLIC "-//W3C//DTD SVG 1.1//EN"
 "http://www.w3.org/Graphics/SVG/1.1/DTD/svg11.dtd">
<!-- Generated by graphviz version 13.1.0 (20250701.0955)
 -->
<!-- Pages: 1 -->
<svg width="633pt" height="304pt"
 viewBox="0.00 0.00 633.00 304.00" xmlns="http://www.w3.org/2000/svg" xmlns:xlink="http://www.w3.org/1999/xlink">
<g id="graph0" class="graph" transform="scale(1 1) rotate(0) translate(4 300)">
<polygon fill="white" stroke="none" points="-4,4 -4,-300 628.76,-300 628.76,4 -4,4"/>
<g id="clust2" class="cluster">
<title>cluster_associated</title>
</g>
<!-- TimeThing -->
<g id="node1" class="node">
<title>TimeThing</title>
<g id="a_node1"><a xlink:href="../classes/TimeThing.md" xlink:title="&lt;TABLE&gt;">
<polygon fill="lightgray" stroke="none" points="1,-269.88 1,-286.12 60,-286.12 60,-269.88 1,-269.88"/>
<text xml:space="preserve" text-anchor="start" x="2" y="-273.73" font-family="Arial" font-size="12.00">TimeThing</text>
<polygon fill="none" stroke="black" points="0,-268.88 0,-287.12 61,-287.12 61,-268.88 0,-268.88"/>
</a>
</g>
</g>
<!-- TimePeriodOfDay -->
<g id="node2" class="node">
<title>TimePeriodOfDay</title>
<g id="a_node2"><a xlink:href="../classes/TimePeriodOfDay.md" xlink:title="&lt;TABLE&gt;">
<polygon fill="lightgray" stroke="none" points="110.88,-184.38 110.88,-200.62 208.12,-200.62 208.12,-184.38 110.88,-184.38"/>
<text xml:space="preserve" text-anchor="start" x="111.88" y="-188.22" font-family="Arial" font-size="12.00">TimePeriodOfDay</text>
<polygon fill="none" stroke="black" points="109.88,-183.38 109.88,-201.62 209.12,-201.62 209.12,-183.38 109.88,-183.38"/>
</a>
</g>
</g>
<!-- TimePeriodOfDay&#45;&gt;TimeThing -->
<g id="edge1" class="edge">
<title>TimePeriodOfDay&#45;&gt;TimeThing</title>
<path fill="none" stroke="black" d="M110.06,-197.81C87.35,-202.23 61.71,-211.04 44.5,-228.5 39.03,-234.05 35.67,-241.61 33.61,-249.1"/>
<polygon fill="none" stroke="black" points="30.23,-248.18 31.69,-258.67 37.09,-249.55 30.23,-248.18"/>
</g>
<!-- Invis -->
<!-- TimePeriodOfDay&#45;&gt;Invis -->
<!-- union_FuzzyTime_time__Instant -->
<g id="node6" class="node">
<title>union_FuzzyTime_time__Instant</title>
<polygon fill="lightyellow" stroke="none" points="276.12,-261.75 276.12,-294.25 424.88,-294.25 424.88,-261.75 276.12,-261.75"/>
<text xml:space="preserve" text-anchor="start" x="322.75" y="-280.85" font-family="Arial" font-size="12.00">«unionOf»</text>
<text xml:space="preserve" text-anchor="start" x="278.12" y="-266.6" font-family="Arial" font-size="12.00">[FuzzyTime or time::Instant]</text>
<polygon fill="none" stroke="black" points="276.12,-261.75 276.12,-294.25 424.88,-294.25 424.88,-261.75 276.12,-261.75"/>
</g>
<!-- TimePeriodOfDay&#45;&gt;union_FuzzyTime_time__Instant -->
<g id="edge7" class="edge">
<title>TimePeriodOfDay&#45;&gt;union_FuzzyTime_time__Instant</title>
<path fill="none" stroke="black" d="M109.98,-202.04C78.84,-209.52 47.59,-222.32 65,-242 78.19,-256.9 185.65,-266.82 264.87,-272.18"/>
<polygon fill="black" stroke="black" points="264.62,-275.67 274.83,-272.84 265.08,-268.68 264.62,-275.67"/>
<text xml:space="preserve" text-anchor="middle" x="149.75" y="-231.55" font-family="Arial" font-size="11.00">endTimeOfPeriod «exactly 1, only» </text>
</g>
<!-- TimePeriodOfDay&#45;&gt;union_FuzzyTime_time__Instant -->
<g id="edge8" class="edge">
<title>TimePeriodOfDay&#45;&gt;union_FuzzyTime_time__Instant</title>
<path fill="none" stroke="black" d="M197.19,-210.33C209.22,-215.9 222.51,-222.27 234.5,-228.5 245.19,-234.05 247.11,-236.85 258,-242 268.47,-246.95 279.84,-251.72 290.92,-256.06"/>
<polygon fill="black" stroke="black" points="289.4,-259.23 299.99,-259.54 291.91,-252.69 289.4,-259.23"/>
<text xml:space="preserve" text-anchor="middle" x="344.25" y="-231.55" font-family="Arial" font-size="11.00">startTimeOfPeriod «exactly 1, only» </text>
</g>
<!-- FuzzyTime -->
<g id="node4" class="node">
<title>FuzzyTime</title>
<g id="a_node4"><a xlink:href="../classes/FuzzyTime.md" xlink:title="&lt;TABLE&gt;">
<polygon fill="lightgray" stroke="none" points="495.25,-98.88 495.25,-115.12 555.75,-115.12 555.75,-98.88 495.25,-98.88"/>
<text xml:space="preserve" text-anchor="start" x="496.25" y="-102.72" font-family="Arial" font-size="12.00">FuzzyTime</text>
<polygon fill="none" stroke="black" points="494.25,-97.88 494.25,-116.12 556.75,-116.12 556.75,-97.88 494.25,-97.88"/>
</a>
</g>
</g>
<!-- Invis&#45;&gt;FuzzyTime -->
<!-- time__Instant -->
<g id="node5" class="node">
<title>time__Instant</title>
<g id="a_node5"><a xlink:href="../classes/time::Instant.md" xlink:title="&lt;TABLE&gt;">
<polygon fill="lightgray" stroke="none" points="494.62,-25.88 494.62,-42.12 560.38,-42.12 560.38,-25.88 494.62,-25.88"/>
<text xml:space="preserve" text-anchor="start" x="495.62" y="-29.73" font-family="Arial" font-size="12.00">time::Instant</text>
<polygon fill="none" stroke="black" points="493.62,-24.88 493.62,-43.12 561.38,-43.12 561.38,-24.88 493.62,-24.88"/>
</a>
</g>
</g>
<!-- FuzzyTime&#45;&gt;time__Instant -->
<!-- union_FuzzyTime_time__Instant&#45;&gt;FuzzyTime -->
<g id="edge5" class="edge">
<title>union_FuzzyTime_time__Instant&#45;&gt;FuzzyTime</title>
<path fill="none" stroke="black" stroke-dasharray="1,5" d="M405.67,-260.15C414.85,-255.42 423.61,-249.47 430.5,-242 452.01,-218.68 436.43,-201.08 453.75,-174.5 464.25,-158.39 479.49,-143.53 493.23,-131.95"/>
<polygon fill="black" stroke="black" points="495.25,-134.82 500.8,-125.8 490.83,-129.39 495.25,-134.82"/>
<text xml:space="preserve" text-anchor="middle" x="473.62" y="-188.8" font-family="Arial" font-size="11.00">member</text>
</g>
<!-- union_FuzzyTime_time__Instant&#45;&gt;time__Instant -->
<g id="edge6" class="edge">
<title>union_FuzzyTime_time__Instant&#45;&gt;time__Instant</title>
<path fill="none" stroke="black" stroke-dasharray="1,5" d="M424.85,-266.5C479.91,-257.03 548.24,-241.09 565.5,-218.5 600.45,-172.77 582.87,-143.87 565.5,-89 562.33,-78.99 556.57,-69.24 550.48,-60.84"/>
<polygon fill="black" stroke="black" points="553.41,-58.91 544.5,-53.17 547.89,-63.21 553.41,-58.91"/>
<text xml:space="preserve" text-anchor="middle" x="604.89" y="-146.05" font-family="Arial" font-size="11.00">member</text>
</g>
</g>
</svg>
