<?xml version="1.0" encoding="UTF-8" standalone="no"?>
<!DOCTYPE svg PUBLIC "-//W3C//DTD SVG 1.1//EN"
 "http://www.w3.org/Graphics/SVG/1.1/DTD/svg11.dtd">
<!-- Generated by graphviz version 13.1.0 (20250701.0955)
 -->
<!-- Pages: 1 -->
<svg width="332pt" height="292pt"
 viewBox="0.00 0.00 332.00 292.00" xmlns="http://www.w3.org/2000/svg" xmlns:xlink="http://www.w3.org/1999/xlink">
<g id="graph0" class="graph" transform="scale(1 1) rotate(0) translate(4 287.5)">
<polygon fill="white" stroke="none" points="-4,4 -4,-287.5 328.25,-287.5 328.25,4 -4,4"/>
<g id="clust2" class="cluster">
<title>cluster_associated</title>
</g>
<!-- TimeThing -->
<g id="node1" class="node">
<title>TimeThing</title>
<g id="a_node1"><a xlink:href="../classes/TimeThing.md" xlink:title="&lt;TABLE&gt;">
<polygon fill="lightgray" stroke="none" points="67.75,-257.38 67.75,-273.62 126.75,-273.62 126.75,-257.38 67.75,-257.38"/>
<text xml:space="preserve" text-anchor="start" x="68.75" y="-261.23" font-family="Arial" font-size="12.00">TimeThing</text>
<polygon fill="none" stroke="black" points="66.75,-256.38 66.75,-274.62 127.75,-274.62 127.75,-256.38 66.75,-256.38"/>
</a>
</g>
</g>
<!-- Validity -->
<g id="node2" class="node">
<title>Validity</title>
<g id="a_node2"><a xlink:href="../classes/Validity.md" xlink:title="&lt;TABLE&gt;">
<polygon fill="lightgray" stroke="none" points="1,-192.5 1,-208.75 193.5,-208.75 193.5,-192.5 1,-192.5"/>
<text xml:space="preserve" text-anchor="start" x="78.12" y="-196.35" font-family="Arial" font-size="12.00">Validity</text>
<text xml:space="preserve" text-anchor="start" x="2" y="-180.1" font-family="Arial" font-size="12.00">overrunning: boolean «max 1, only»</text>
<polygon fill="none" stroke="black" points="0,-175.25 0,-209.75 194.5,-209.75 194.5,-175.25 0,-175.25"/>
</a>
</g>
</g>
<!-- Validity&#45;&gt;TimeThing -->
<g id="edge1" class="edge">
<title>Validity&#45;&gt;TimeThing</title>
<path fill="none" stroke="black" d="M97.25,-210.21C97.25,-217.97 97.25,-227.42 97.25,-236.24"/>
<polygon fill="none" stroke="black" points="93.75,-236.16 97.25,-246.16 100.75,-236.16 93.75,-236.16"/>
</g>
<!-- Invis -->
<!-- Validity&#45;&gt;Invis -->
<!-- OverallPeriod -->
<g id="node4" class="node">
<title>OverallPeriod</title>
<g id="a_node4"><a xlink:href="../classes/OverallPeriod.md" xlink:title="&lt;TABLE&gt;">
<polygon fill="lightgray" stroke="none" points="231.5,-98.88 231.5,-115.12 307,-115.12 307,-98.88 231.5,-98.88"/>
<text xml:space="preserve" text-anchor="start" x="232.5" y="-102.72" font-family="Arial" font-size="12.00">OverallPeriod</text>
<polygon fill="none" stroke="black" points="230.5,-97.88 230.5,-116.12 308,-116.12 308,-97.88 230.5,-97.88"/>
</a>
</g>
</g>
<!-- Validity&#45;&gt;OverallPeriod -->
<g id="edge6" class="edge">
<title>Validity&#45;&gt;OverallPeriod</title>
<path fill="none" stroke="black" d="M90.94,-174.78C88.21,-164.44 87.11,-151.55 94.5,-143 112.52,-122.14 190.41,-131.31 217.25,-125 218.06,-124.81 218.89,-124.61 219.71,-124.41"/>
<polygon fill="black" stroke="black" points="220.37,-127.85 229.09,-121.85 218.53,-121.1 220.37,-127.85"/>
<text xml:space="preserve" text-anchor="middle" x="195.38" y="-146.05" font-family="Arial" font-size="11.00">validityTimeSpecification «exactly 1, only» </text>
</g>
<!-- code__Code -->
<g id="node5" class="node">
<title>code__Code</title>
<g id="a_node5"><a xlink:href="../classes/code::Code.md" xlink:title="&lt;TABLE&gt;">
<polygon fill="lightgray" stroke="none" points="234.5,-25.88 234.5,-42.12 298,-42.12 298,-25.88 234.5,-25.88"/>
<text xml:space="preserve" text-anchor="start" x="235.5" y="-29.73" font-family="Arial" font-size="12.00">code::Code</text>
<polygon fill="none" stroke="black" points="233.5,-24.88 233.5,-43.12 299,-43.12 299,-24.88 233.5,-24.88"/>
</a>
</g>
</g>
<!-- Validity&#45;&gt;code__Code -->
<g id="edge5" class="edge">
<title>Validity&#45;&gt;code__Code</title>
<path fill="none" stroke="black" d="M85.63,-174.87C71.95,-153.04 53.39,-114.5 72.75,-89 90.79,-65.24 171.12,-49.12 222.44,-41.04"/>
<polygon fill="black" stroke="black" points="222.69,-44.54 232.05,-39.58 221.64,-37.62 222.69,-44.54"/>
<text xml:space="preserve" text-anchor="middle" x="147" y="-103.3" font-family="Arial" font-size="11.00">validityStatus «exactly 1, only» </text>
</g>
<!-- Invis&#45;&gt;OverallPeriod -->
<!-- OverallPeriod&#45;&gt;code__Code -->
</g>
</svg>
